<mxfile host="app.diagrams.net" agent="Mozilla/5.0 (Windows NT 10.0; Win64; x64) AppleWebKit/537.36 (KHTML, like Gecko) Chrome/132.0.0.0 Safari/537.36" version="26.0.11">
  <diagram name="Page-1" id="qPxI1cbL3pzF2wvBHmst">
    <mxGraphModel grid="1" page="1" gridSize="10" guides="1" tooltips="1" connect="1" arrows="1" fold="1" pageScale="1" pageWidth="827" pageHeight="1169" background="none" math="0" shadow="0" adaptiveColors="auto">
      <root>
        <mxCell id="0" />
        <mxCell id="1" parent="0" />
        <mxCell id="KbwtScOcqvufNCTyEEZZ-1" value="" style="whiteSpace=wrap;html=1;aspect=fixed;labelBackgroundColor=none;fillColor=#B2C9AB;strokeColor=#788AA3;fontColor=#46495D;" vertex="1" parent="1">
          <mxGeometry x="235" y="160" width="270" height="270" as="geometry" />
        </mxCell>
        <mxCell id="KbwtScOcqvufNCTyEEZZ-2" value="&lt;h2&gt;Adaptive Contrast Enhancement Algorithm&lt;br&gt;(ACEA )&lt;/h2&gt;" style="rounded=1;whiteSpace=wrap;html=1;labelBackgroundColor=none;fillColor=#B2C9AB;strokeColor=#788AA3;fontColor=#46495D;" vertex="1" parent="1">
          <mxGeometry x="265" y="200" width="215" height="60" as="geometry" />
        </mxCell>
        <mxCell id="KbwtScOcqvufNCTyEEZZ-3" value="&lt;h2&gt;Adaptive Gamma Correction&amp;nbsp;&lt;/h2&gt;" style="rounded=1;whiteSpace=wrap;html=1;labelBackgroundColor=none;fillColor=#B2C9AB;strokeColor=#788AA3;fontColor=#46495D;" vertex="1" parent="1">
          <mxGeometry x="265" y="265" width="220" height="60" as="geometry" />
        </mxCell>
        <mxCell id="KbwtScOcqvufNCTyEEZZ-4" value="&lt;h2&gt;Medial Filter&lt;br&gt;(removes noise in the image)&lt;/h2&gt;" style="rounded=1;whiteSpace=wrap;html=1;labelBackgroundColor=none;fillColor=#B2C9AB;strokeColor=#788AA3;fontColor=#46495D;" vertex="1" parent="1">
          <mxGeometry x="265" y="330" width="220" height="60" as="geometry" />
        </mxCell>
        <mxCell id="KbwtScOcqvufNCTyEEZZ-5" value="&lt;h2&gt;Preprocessing&lt;/h2&gt;" style="text;html=1;align=center;verticalAlign=middle;resizable=0;points=[];autosize=1;strokeColor=none;fillColor=none;labelBackgroundColor=none;fontColor=#46495D;" vertex="1" parent="1">
          <mxGeometry x="295" y="155" width="150" height="60" as="geometry" />
        </mxCell>
        <mxCell id="KbwtScOcqvufNCTyEEZZ-6" value="&lt;h2&gt;Fuzzy C-means&amp;nbsp;&lt;br&gt;(segmentation technique)&lt;/h2&gt;" style="rounded=1;whiteSpace=wrap;html=1;labelBackgroundColor=none;fillColor=#B2C9AB;strokeColor=#788AA3;fontColor=#46495D;" vertex="1" parent="1">
          <mxGeometry x="235" y="485" width="295" height="100" as="geometry" />
        </mxCell>
        <mxCell id="KbwtScOcqvufNCTyEEZZ-9" value="&lt;h2&gt;Contrast,Correlation,&lt;br&gt;Energy,Homogenity&lt;/h2&gt;" style="rounded=1;whiteSpace=wrap;html=1;labelBackgroundColor=none;fillColor=#B2C9AB;strokeColor=#788AA3;fontColor=#46495D;" vertex="1" parent="1">
          <mxGeometry x="590" y="630" width="200" height="70" as="geometry" />
        </mxCell>
        <mxCell id="KbwtScOcqvufNCTyEEZZ-14" value="&lt;h2&gt;&lt;br&gt;Tumor Tissue&lt;br&gt;&lt;img height=&quot;74&quot; width=&quot;70&quot; style=&quot;background-color: initial;&quot; src=&quot;data:image/jpeg;base64,/9j/4AAQSkZJRgABAQEAYABgAAD/2wBDAAYEBQYFBAYGBQYHBwYIChAKCgkJChQODwwQFxQYGBcUFhYaHSUfGhsjHBYWICwgIyYnKSopGR8tMC0oMCUoKSj/2wBDAQcHBwoIChMKChMoGhYaKCgoKCgoKCgoKCgoKCgoKCgoKCgoKCgoKCgoKCgoKCgoKCgoKCgoKCgoKCgoKCgoKCj/wAARCABKAEYDASIAAhEBAxEB/8QAHwAAAQUBAQEBAQEAAAAAAAAAAAECAwQFBgcICQoL/8QAtRAAAgEDAwIEAwUFBAQAAAF9AQIDAAQRBRIhMUEGE1FhByJxFDKBkaEII0KxwRVS0fAkM2JyggkKFhcYGRolJicoKSo0NTY3ODk6Q0RFRkdISUpTVFVWV1hZWmNkZWZnaGlqc3R1dnd4eXqDhIWGh4iJipKTlJWWl5iZmqKjpKWmp6ipqrKztLW2t7i5usLDxMXGx8jJytLT1NXW19jZ2uHi4+Tl5ufo6erx8vP09fb3+Pn6/8QAHwEAAwEBAQEBAQEBAQAAAAAAAAECAwQFBgcICQoL/8QAtREAAgECBAQDBAcFBAQAAQJ3AAECAxEEBSExBhJBUQdhcRMiMoEIFEKRobHBCSMzUvAVYnLRChYkNOEl8RcYGRomJygpKjU2Nzg5OkNERUZHSElKU1RVVldYWVpjZGVmZ2hpanN0dXZ3eHl6goOEhYaHiImKkpOUlZaXmJmaoqOkpaanqKmqsrO0tba3uLm6wsPExcbHyMnK0tPU1dbX2Nna4uPk5ebn6Onq8vP09fb3+Pn6/9oADAMBAAIRAxEAPwD5Upw+7TauaXYz6lqFtZ2iGSe4kWKNVGSWYgDj8aANXwf4X1PxZrEen6RbPLI5wzAHag7k4r3PSvAPhfw3ZXMZs4PEGp2w23NzdyeTZxOOqbsPlgcjGB0Nc9rV5deErNvCPg9MTJEv9pXiKS7s2GK5HYAqMc9Ku+E/Cl5qAt7jV5pJoYkAQSHATAxgUAcnP478MSuUk+H2lxKwwCs4QfXPl100HhDwZ4vs4Y7b/in9SmGIJFfzbZ2zwhf5fmJ46dxUd54bhvNbwscUbIr7AFwPatTXvBCwy/bbR3guGjxleAOOfwIoA8b8ceEtT8G63JpusRbJV+aOQA4kTsRnqOa5mvdNN1iXXo5PBXjGZZrSRT/Z2oOMGKReQoJ4xjcuPpXjGq6dPpepXNjdoyTwOY3UjHIOKAKVFKaKADFer/Biwj0zTda8XXUYZtPiZbTPeXacnH+zlTXlQ7eufyr2Cxuvs3wv0SwgCo19dSh1PBcMsak/lQBseBViTff6lcqZLxzLN5gOeTgdPwr1yxgsotLIgkWKFuVct8vPPevLtK0sHRGSeANNAuMlyMjPb8DXoUGk2l54NTTf3zCWEFW3EFWODnOfrQBz15o8z+IYLS6MjiQMwmjGAOnfpXZS29mNNKSTpKkXys24HHfBx9a8TvvG+taTcXvh2K7W5MUwt4L11BZVJK5OR14616hp2gQaZ4Olti80txOWnZmkJLttHOSfbGPagDgPiJpsF/EJtKmjSS1PmJt42kHp+Ncd8TIV1rRNI8V26bZ50WG+CjhZQo+Y/wC8dx/Cu0htxPY3iRB5JVbDwhRkfiayfDNl/afhjxLok6ECGB7mKPP/AC1XIXH03GgDxU0UrAhsGigBeSfXjJr2TXrVoLrwNprP5S2+nJcPx/Hub/4kV40PbrXunxQtom+Imj8sLdrJDE3tlsYoA1Lq/ivb3T4JI5WHmfMQcZ4POf0r1aBwscFtCm3KLsU8kYHr6V5fF4fnvrcW9o8TR7lZiCMryD69a7HUdb0/w2un213M5upE2IoBJIAGTkDtx+dAGB4g8GadeeIBCbcb9Ska4lkQAFChz1993H0rvJkEKRxEH5V2KvUke9craR63rWo2+uJEsVtbpIscEg2tIrAYPJGOnpWlJq8Fxc20M2+G4lUhVYHk85AoA881y+/szxBeQQrH5c3zNmTktxweKi+GtzDN8WbK2cL5V9GkcgHTqBg/ma0/EOmLb3U8zqYVVsq33i5P/wCusL4eQb/jH4eIUgNIM4GOjLzQB4vq9s1nqdzbyfejkKmirPimYT+ItQlByGmY5ooAzB144PavbdelXXvh74P8SkM7ac/9m3jocEYKEE/9/DXiFe3fs9XVtrmm+IvA1/tP9qwl7PzOVWZVY5/MLQB2nhu90+0gjd5T64Qkk56ZrotXs9JuZLLUNQjcunMSgZJyP88V5B4b1BtB1a60a9hAv7WXYBKOSOPX8x7V6fLqEeoWqwu+2fAwR60Aah17zLqFLHHkg87hjjjpVe8tbXUdYs7iK4dLm0JIjAGGyCPT3rPWHZhTuEpG3g9KWMJYTm4dstjB9aAKXja6triN7edpI1Axvx/Fn25rnPhq0h8cajqTYaHRdNlnMw6bsqR/6Caf401OO0juLl2Qo5AXPrj0qSxgPg34A6zq96DHqHiZxDGv8QjKuR+HzCgD57uG3zuxOcsTmimt1+tFADa0ND1K40fVLXUbKQx3NrKssbDsynIz7cVn09O/0oA+k7qfw98Z9DF9HNBo/ji2RRsaRVE+CBnJwfun9K5KLS/HHhW6eS40G9vkA2mby3cEeokxivGlkePDRuyt6qcGvoD9l+4muNZKzyySrjo7Fh196AK2i/EYwyump6FJEfLzGzXXlYb8UOaxrzxlf6y8Fpo2mzXV2zk/u1Mn0GAOa+0PE9la+Vbf6NB/rP8AnmPauJ+LttBb/D28kt4Y4nELYZECkfiKAPnvSdC0jS7xda+J2rRRSp86aVEQ82e2VJyvHtXF/GH4iTePNYjaGL7LpNoClpbA8IvA/kB2rhLiR5bqVpXZ23Hljk9agX7woAQ0UrfeNFAH/9k=&quot;&gt;&lt;/h2&gt;" style="rounded=1;whiteSpace=wrap;html=1;labelBackgroundColor=none;fillColor=#B2C9AB;strokeColor=#788AA3;fontColor=#46495D;" vertex="1" parent="1">
          <mxGeometry x="590" y="710" width="140" height="110" as="geometry" />
        </mxCell>
        <mxCell id="KbwtScOcqvufNCTyEEZZ-15" value="" style="rounded=1;whiteSpace=wrap;html=1;labelBackgroundColor=none;fillColor=#B2C9AB;strokeColor=#788AA3;fontColor=#46495D;" vertex="1" parent="1">
          <mxGeometry x="590" y="827.5" width="150" height="105" as="geometry" />
        </mxCell>
        <mxCell id="KbwtScOcqvufNCTyEEZZ-17" value="&lt;h2&gt;Performance Analysis&lt;br&gt;with other models&lt;br&gt;(vgg-16,fcnns,rnns,ann)&lt;/h2&gt;" style="rounded=1;whiteSpace=wrap;html=1;labelBackgroundColor=none;fillColor=#B2C9AB;strokeColor=#788AA3;fontColor=#46495D;" vertex="1" parent="1">
          <mxGeometry x="30" y="740" width="170" height="160" as="geometry" />
        </mxCell>
        <mxCell id="KbwtScOcqvufNCTyEEZZ-20" value="" style="endArrow=classic;html=1;rounded=0;labelBackgroundColor=none;strokeColor=#788AA3;fontColor=default;" edge="1" parent="1">
          <mxGeometry width="50" height="50" relative="1" as="geometry">
            <mxPoint x="369.5" y="430" as="sourcePoint" />
            <mxPoint x="370" y="480" as="targetPoint" />
          </mxGeometry>
        </mxCell>
        <mxCell id="KbwtScOcqvufNCTyEEZZ-21" value="" style="endArrow=classic;html=1;rounded=0;entryX=0.461;entryY=0.025;entryDx=0;entryDy=0;entryPerimeter=0;labelBackgroundColor=none;strokeColor=#788AA3;fontColor=default;" edge="1" parent="1" target="4aXJdMdzk_CL_00D9c5z-4">
          <mxGeometry width="50" height="50" relative="1" as="geometry">
            <mxPoint x="372.5" y="585" as="sourcePoint" />
            <mxPoint x="372" y="625" as="targetPoint" />
          </mxGeometry>
        </mxCell>
        <mxCell id="KbwtScOcqvufNCTyEEZZ-22" value="" style="endArrow=classic;startArrow=classic;html=1;rounded=0;labelBackgroundColor=none;strokeColor=#788AA3;fontColor=default;" edge="1" parent="1">
          <mxGeometry width="50" height="50" relative="1" as="geometry">
            <mxPoint x="540" y="674.5" as="sourcePoint" />
            <mxPoint x="590" y="674.5" as="targetPoint" />
          </mxGeometry>
        </mxCell>
        <mxCell id="KbwtScOcqvufNCTyEEZZ-10" value="Classification of&amp;nbsp; brain tumor images using&lt;div&gt;CNN-SVM&amp;nbsp;&lt;/div&gt;&lt;div&gt;(&lt;span style=&quot;background-color: initial;&quot;&gt;Convolutional Neural support vector machine)&lt;/span&gt;&lt;/div&gt;&lt;div&gt;&lt;span style=&quot;background-color: initial;&quot;&gt;hybrid model&amp;nbsp;&lt;/span&gt;&lt;/div&gt;  " style="rounded=1;whiteSpace=wrap;html=1;labelBackgroundColor=none;fillColor=#B2C9AB;strokeColor=#788AA3;fontColor=#46495D;" vertex="1" parent="1">
          <mxGeometry x="240" y="760" width="300" height="100" as="geometry" />
        </mxCell>
        <mxCell id="KbwtScOcqvufNCTyEEZZ-28" value="" style="endArrow=classic;html=1;rounded=0;labelBackgroundColor=none;strokeColor=#788AA3;fontColor=default;" edge="1" parent="1">
          <mxGeometry width="50" height="50" relative="1" as="geometry">
            <mxPoint x="372" y="720" as="sourcePoint" />
            <mxPoint x="372" y="760" as="targetPoint" />
            <Array as="points">
              <mxPoint x="372.5" y="720" />
            </Array>
          </mxGeometry>
        </mxCell>
        <mxCell id="KbwtScOcqvufNCTyEEZZ-29" value="" style="endArrow=classic;html=1;rounded=0;entryX=0;entryY=0.5;entryDx=0;entryDy=0;labelBackgroundColor=none;strokeColor=#788AA3;fontColor=default;" edge="1" parent="1" target="KbwtScOcqvufNCTyEEZZ-14">
          <mxGeometry width="50" height="50" relative="1" as="geometry">
            <mxPoint x="540" y="790" as="sourcePoint" />
            <mxPoint x="585" y="880" as="targetPoint" />
          </mxGeometry>
        </mxCell>
        <mxCell id="KbwtScOcqvufNCTyEEZZ-30" value="" style="endArrow=classic;html=1;rounded=0;entryX=0;entryY=0.5;entryDx=0;entryDy=0;exitX=1.002;exitY=0.658;exitDx=0;exitDy=0;exitPerimeter=0;labelBackgroundColor=none;strokeColor=#788AA3;fontColor=default;" edge="1" parent="1" source="KbwtScOcqvufNCTyEEZZ-10" target="KbwtScOcqvufNCTyEEZZ-15">
          <mxGeometry width="50" height="50" relative="1" as="geometry">
            <mxPoint x="535" y="940.36" as="sourcePoint" />
            <mxPoint x="597.5999999999999" y="970.0000000000001" as="targetPoint" />
          </mxGeometry>
        </mxCell>
        <mxCell id="KbwtScOcqvufNCTyEEZZ-31" value="" style="endArrow=classic;html=1;rounded=0;labelBackgroundColor=none;strokeColor=#788AA3;fontColor=default;" edge="1" parent="1">
          <mxGeometry width="50" height="50" relative="1" as="geometry">
            <mxPoint x="240" y="809.5" as="sourcePoint" />
            <mxPoint x="200" y="809.5" as="targetPoint" />
          </mxGeometry>
        </mxCell>
        <mxCell id="jkG0jeqMukQhXpEhHNDx-4" value="&lt;p&gt;&lt;br&gt;&lt;/p&gt;" style="text;html=1;align=center;verticalAlign=middle;resizable=0;points=[];autosize=1;strokeColor=none;fillColor=none;labelBackgroundColor=none;fontColor=#46495D;" vertex="1" parent="1">
          <mxGeometry x="90" y="220" width="20" height="50" as="geometry" />
        </mxCell>
        <mxCell id="jkG0jeqMukQhXpEhHNDx-5" value="&lt;h2&gt;original Image dataset&lt;/h2&gt;" style="text;html=1;align=center;verticalAlign=middle;resizable=0;points=[];autosize=1;strokeColor=none;fillColor=none;labelBackgroundColor=none;fontColor=#46495D;" vertex="1" parent="1">
          <mxGeometry x="25" y="165" width="210" height="60" as="geometry" />
        </mxCell>
        <mxCell id="jkG0jeqMukQhXpEhHNDx-6" value="" style="endArrow=classic;html=1;rounded=0;labelBackgroundColor=none;strokeColor=#788AA3;fontColor=default;" edge="1" parent="1">
          <mxGeometry width="50" height="50" relative="1" as="geometry">
            <mxPoint x="190" y="260" as="sourcePoint" />
            <mxPoint x="230" y="260" as="targetPoint" />
          </mxGeometry>
        </mxCell>
        <mxCell id="jkG0jeqMukQhXpEhHNDx-8" value="&lt;h2&gt;Segmented image&amp;nbsp;&lt;br&gt;using fcm&lt;br&gt;&lt;img height=&quot;80&quot; width=&quot;80&quot; style=&quot;background-color: initial;&quot; src=&quot;data:image/png;base64,iVBORw0KGgoAAAANSUhEUgAAAFAAAABQCAYAAACOEfKtAAAAAXNSR0IArs4c6QAAAARnQU1BAACxjwv8YQUAAAAJcEhZcwAADsMAAA7DAcdvqGQAAA5lSURBVHhe7Zx5zF3DG8enRYvaSrXUUg1d0kUFocQWQUojhKKW0PaPogiNJfat1L4UFWJrU2mFUqld7V201F5aa4sItbVoUdv85jOd53bO3Ln3Pdt9X/LrN/nmnjMz59xznjvzzPM888xtpQ3UauRGa/e5GjmxWoAFsVqABbFagAXxn5lEpk2bpv766y/Vv39/1b59e1fa8vhXCXDOnDlq0qRJasmSJWrixImudCUQHlhjjTVUly5d1MCBA9WRRx6p1llnHbXTTjvZuhYBAmxJ/PDDD3rUqFF6ww035IeMcu2119bbbbed3nTTTavqWrVqZa+99NJL9Ycffqj//vtvd+fmQYsJ8JdfftEXXHCB3mijjSrCWGuttfTGG2+sTY/Sa665pj3+7LPP9FdffWWv+emnn/STTz6pTzvtNP3pp5/aurPPPtu2lXv069dPP/vss7Z9c6BFBPjMM88kelOPHj30scceq99//33XQuu3337bHdUH7dZff/3KvSACvf76612LxqJZBbh8+XK9zz77VF4Uod1///22N+bF5MmTE8LzecQRR+hFixa5lo1BswkQIe255572xXr16qU/+OADV1Mcf/75p77lllv05ptvXiVEyhjqjUKzCJCeJ8I75JBDtJlRXU0cU6ZMse2YHEaOHKn/+ecfV6P1WWedZcuFd9xxh/7tt99sHZ+DBw+2upTvkqHdqVOnhgmx4QL8/fffE8O2qRd54IEHdOvWrSvt4TbbbKN//vlnW7/77rsn6uAZZ5yh33vvPT1r1iwr7KlTp+rbb79df/vtt/raa6+1M3XHjh0bIsSGC/Cwww5LvGytlzjxxBOtcGLDEC5dutTOwuGEEfK8885zd1yF0aNH2zomrrKF2FAB0hPkxfbbbz/7iRkC6B30GOC3q0UEiJ6L1YV84YUX7H19nHzyybauc+fOpdqKDRMg+miLLbawD92hQwc7LDGIsem+++473bNnTzu09t9/f33dddclBBDywAMPtPfkulh9yN122822v+qqqyr687XXXtPrrbeercfoLgsNE+DDDz9ceSGUOsJ74oknbN3YsWMrdbBNmzaJc594IDJJHH/88dE2IflhZNIaMWKEvXavvfbSxg20Zfyw6OYy0BABYlZsueWWiZe68cYb7ezL8Grbtm2iDnbt2rWqDBpfV8+YMcP2pFpt6rFbt256xYoVdrb2y1966SX3tMXQEAEyk/oP279/fyuA2267LVGehejAUAhpiN4E2KG+9yPDvChKFyCTgwwViNKWmQ/dI+VpiOAxQyZMmKD/+OMPaxPG2tXjzjvvrKdNm2a/nx8A70TqYpNNVpQuwMsvv7zygPikuGpg7ty5Vg9KXVM89dRTba/95JNP9OzZs61vG2uXhgQs5s2bZ58DK0DKjznmGFtWBKUKEGNXvAB40kknuRpte5OUMwOjE1H2UhZy1113te3kfgMHDkzcOyuJ4ICXX3658r3o1y+++MKW50VpAqS3iK0nJNTEbBcbelkmBMygX3/91Q7nWH0tInBCYnhC+N4StBg+fHilzbBhw2xZXpQmQIao//CYEQgv9ETykOADMzize9++faNtYsR+xHY8/fTT7Q8mngiCbNeuXaVdEZQmQB7Wf3hmTYBz75fn4VFHHWXvBWK+cBaKUe5PaPTsvChFgCh5/yF32WUXV6P1ggULEnV5SDQFY/rzzz+v6SunIapg/vz59rl8AXbp0iW3e1fKsiYLQT5Mj7GfH330kTI2oT0ugsWLFysjRNWjRw/19ddfu9LsML1XbbDBBvbYmDP2E5gfRt11113uLCOcIHPjm2++qTJP7rzzTr1kyRK9ySabJMrTcOutt9ZDhgypCmmVRWbet956S3/88ceJclw98ZuzoLAAfbtPiLJHsOK8Z6F4DjNnzoyuwpXBp556yqqEUB2girKi8BAOh69R0soY0HbIjRs3zpVmB8ONdWJ/qAlGjRqlTG9RRo+5kmzo3r27MqPG0sc999zjjjLACTIXWEULh9pFF13kaleu+fp1adinT59EyJ9h9dBDD1n3kOH95Zdf2nJMkaaCq7VIVAfcfPPNiXI8lu+//97WpUUhAV5zzTWJB4DvvPOOq9X6xRdfrKpPw8MPP9z6vj6I7UkwFqCzYtem4Q033GDvEXu+iRMn2rq0KCRAHHX/ywlTARaR6H0nnHBCoj4LH3nkEXuvGAhFxa5Jy1NOOcXeh+cM9SC9PAtyCxCL3v9iyDovGDBgQFVdVh588MH2XjGwiBS7Ji2Z3F5//XV7rzBIQQDk3XfftXVpkHsSmTVrljtaBeML28/nnnvOfhaBmYXdUTWMe+aO8mHZsmXK/AjKzMTKqApXuhIkMU2ZMsWdpYATZGbsscceiV8OYnoAsgX8mGAeEgSoBXzb2DVZiZkUcw2J1qRFLgESGdlqq60SX9q+fXs7e6JXCBGx6O3XZyURlFrwY3oxoovffPNNmzfDc8XaQFw4ZvhYnaxDN4VcQ3jp0qXKmBPubCV69uxpc/fI2+vWrZsyZoarqQZtm0Lfvn3d0UoY70Q99thj7qw+VqxYYXMM+/Xrp4xZ5UqT6NixozKzsBo0aJB1EUNMnTrVHdVHLgGaIeqOVsHMyPbTzJD2BTB0a2HBggXuKD0effRRZYZuav03ePBgZUwfdeaZZ7qSJDD4u3btao/l2XPB9cRMiC1wi40WlockyEkOX6zOp0SQgR/tIa6XZ3Uuxu23317/+OOPUZXAQnwalBKNAWmGJSA6M3bsWHdWG8aOdEdJLFy40LIejC2nRo4cGR2aPoy5oubPn+/Okli0aJE7qo9cAnz11Vfd0SqgF9MA3WkMbHdWG08//bQ7yg7Mk9GjR6t58+Yp03tVmzZtXE01jD2oHnzwQXeWA64nZkJsCMmQO+eccyplzIYMBYaK3zYN8RAEYcA2Dffdd1+ravwU4pCYK7h1Rr9W1RH28n3yWihNgKSTgVCf3HfffVbPXH311alX1QgS+Cm+eQSYhr6t6edZCwnLNYXSBCiL57UUPGuwfu+sRXoMC1Q+SLaUen4QM+RsZoF/XVauu+66NpggaFYBDh06tOrL7r33XlsXlofkwRlaJJaHdQgPA9hH6PfKohBhLrLxwzwbvAvu//zzz0e/g1AWqSfh8GxWAcbMGHQgoSw5JywfC3ehd3D17r777qo6ygW8INkJYRvItYKjjz46UYd3IaEwBEBbP2YpvZuejDdF5Jwfwr8HJO0uDXIJEFct/MUQIBEO9nhsttlmNliZxV7zly4RHiGnWDuIgpfw++LFi6tCUmRksRpI0JW9KCJA43XYsvHjx1fKCMnddNNNieshaiMNcgkQhE64b/j6CTxpKYEIUKvn+awXkhKGayoXX3yxTfcNU0oIw/nnUHJ6mkJuAZLZ5H+hL0CO/bo0pLcy3GJ6izyZcBUNMltfeOGFhRafyKkmBSUsT5u5lVuAwI9I+wIkY75oOMtnLQGWQXp+aHqxAJ8WhVy5WpEOAqr1gglZwa7MQt5CHRA1Ct/D9Gp3lAJOkLngr8rJWkLR9YoYmfUnTZoUrSvCvffeW0+fPj1Rxn6SLPnThQQIZDYWqx6vo8zhCxFgI4awGP9+mXhUaVE4GmN8Xfu5fPlyZV7S7ia/4oorbFlZYK0lXCMh/2bGjBmqV69eriQdWKgn8CsI7ztgwAB3lBJOkLlx2WWXVX49/F2Al8AmainPQtaEw1ybW2+9tSq/GlMEY5dsqyz2ppDvYM8KWbRSxpaKrCgsQN/RJ1ggwCWT8izkxUI7jSEsAiRx08945XzHHXesnKclOYGhujn//PPd06dHqQKEEkUJe0wRso+OQATmDAo+1iYLmfBILgpTTwhrZUVhHdi7d2/Vrl07d6YqCz8HHHCA/cwDzBY/qeiNN95QZripESNGqLZt29qEJuM9KNPjXYv6OPfcc92RUp07d7YBYRKLjA/sSpUytl++Z3aCLAR/CdPfF5JHD0oExPwQVWUAvYXhi54leJHGC/HTj+XZWH4l81XK6d15UIoA8THlQSDngkMPPTRR1xSZRMK04HHjxully5ZZ3Sd2J+ZTnvxrQWhXcp4HpQgw1Hds5iNMBOglzG7hxFCPbJcIF+bzJGsKCXHxjMQBAfrPz54lRpkmfB9DKQKUDc0+jR5LJG6zjZ9ywlZpljXLZDg5EM7y6yVImwelCLBWOq+sFYNGrWukoWy5EIQ7SVtcgEB2hPsk3C4b/dBrsbB5c1CCr4CdSWF92thfDKUJkKz8WC8kvsduIRBbw4CUXXnllXY7lv8HFWUQT0nw+OOPR9uQdJ4XpQkQECGO5S3Lzkvwyiuv2DzosI1EpPMEY2PkOS655BJ7T8AmnViQg3ZFUKoAAf9NEFvMNsasa7EyQZxIsvi8zNBz5syxdTEBYq+l3TvCeglrJP66MusmMX+Z75V86bwoXYAAAYX50/4ahgCjloUeSQ1maz+GuH8dlMz/pnassyU23L7Kd2677bbR9v7wzouGCFAQeiIMF3poLcSEB/mnNkG4mEUAg1k0toZBL4/Zn4wQnq0MNFSAIFwbZoix2TqGcEGJtQnIxmtmcLaohkuYqAFxzwTou9BUEdIbw8X7Imi4AEFsdzrGtJg4AvSfpA53797dbvePbebxSTt/2KL7fB/XJ6GvcP9JUTSLAAH/UiT/5SLEfCGzwBcA4Sp6lB9AIG0E4QqpF0q7cBFdiJuGK8c9sqx1pEWzCRDgg44ZMybxgpDhySyLQSs2Ge4X/wBSDySCcw274mNRGXSq/Ptlo9CsAhTQc/Bc6BnhS5dBJhbuz/c0Gi0iQAHBBv43i1hckWgLZHI46KCDbKAgb2QlD/41f4PMqp6ZNGw2PiCTf+7cufY4xHHHHeeOlNphhx2Ucf+U0XWpI9Rl4j/zR9z/VpSWpf//CaX+Bw35czhPX3dOAAAAAElFTkSuQmCC&quot;&gt;&lt;/h2&gt;" style="rounded=1;whiteSpace=wrap;html=1;labelBackgroundColor=none;fillColor=#B2C9AB;strokeColor=#788AA3;fontColor=#46495D;" vertex="1" parent="1">
          <mxGeometry x="50" y="450" width="140" height="150" as="geometry" />
        </mxCell>
        <mxCell id="jkG0jeqMukQhXpEhHNDx-10" value="" style="shape=image;verticalLabelPosition=bottom;labelBackgroundColor=none;verticalAlign=top;aspect=fixed;imageAspect=0;image=data:image/jpeg,/9j/4AAQSkZJRgABAQEAYABgAAD/2wBDAAYEBQYFBAYGBQYHBwYIChAKCgkJChQODwwQFxQYGBcUFhYaHSUfGhsjHBYWICwgIyYnKSopGR8tMC0oMCUoKSj/2wBDAQcHBwoIChMKChMoGhYaKCgoKCgoKCgoKCgoKCgoKCgoKCgoKCgoKCgoKCgoKCgoKCgoKCgoKCgoKCgoKCgoKCj/wAARCABGAEYDASIAAhEBAxEB/8QAHwAAAQUBAQEBAQEAAAAAAAAAAAECAwQFBgcICQoL/8QAtRAAAgEDAwIEAwUFBAQAAAF9AQIDAAQRBRIhMUEGE1FhByJxFDKBkaEII0KxwRVS0fAkM2JyggkKFhcYGRolJicoKSo0NTY3ODk6Q0RFRkdISUpTVFVWV1hZWmNkZWZnaGlqc3R1dnd4eXqDhIWGh4iJipKTlJWWl5iZmqKjpKWmp6ipqrKztLW2t7i5usLDxMXGx8jJytLT1NXW19jZ2uHi4+Tl5ufo6erx8vP09fb3+Pn6/8QAHwEAAwEBAQEBAQEBAQAAAAAAAAECAwQFBgcICQoL/8QAtREAAgECBAQDBAcFBAQAAQJ3AAECAxEEBSExBhJBUQdhcRMiMoEIFEKRobHBCSMzUvAVYnLRChYkNOEl8RcYGRomJygpKjU2Nzg5OkNERUZHSElKU1RVVldYWVpjZGVmZ2hpanN0dXZ3eHl6goOEhYaHiImKkpOUlZaXmJmaoqOkpaanqKmqsrO0tba3uLm6wsPExcbHyMnK0tPU1dbX2Nna4uPk5ebn6Onq8vP09fb3+Pn6/9oADAMBAAIRAxEAPwD5UpwXIptTIBtFADNtLsHvXY6F4ft4rRL7WlLeZg29pv2GQf33I5VPpyevHfp7fUv7ItnjttO0+CZgAskceHiHqefm49aAPJ9gpNleo3Ek10A8wtb1ZWGGnt1cqO+DgVh6toVteWxudKhaG4QbpLTO4MP7yHqfp/kgHFbaRhipmUA9Kjk+7QBHRRRQAV0ngrSV1bWVWfi0tozc3BPQIvb8SVX8a5uvQvA4+yeEdeuwP3lw0dqpB6rzuH4lk/KgDXhjlvLlp7vhXwwXpj0H4D+Zp2pQFwz2wBcEBiMlhz2A9qoqXeaBBKFCnzTGqjI+vNXtViulsvP08YuVYMQvVh3HvQBI8ghkhtSC0rqWJx0xWVLfxW1zGdstvMnzo5TgmpvDzXE2pXrzFmibBBYEEH0pNdEcM0UhJ3s4VR1HX0oA5/xhZxSeTq1koWC6/wBai/wS9/z5P51ysnSvRUtGuxNZy4P2oNEMDjeBmM/XcAK87lGFNAENFFFABXpvhSMj4fSOAPLN9Ir5/wB2Ej+RrzKu/wDh7c/are/0V3AEoFzDk8eYvDf+OknHfaKANe6t4tHkttRhmUzeVuWORcgscc+hA64rb0p7fU4YSZBb3bjLqR8jHP8ADjp9P5VhxW8UsctlqLOVSTjYAWibvj1Bp2i61PaX1xZ28bRRwOxDMi524AXnGdxx+RoAFZ9N1y8huCWikbIxyFYLz0/CmXl1ZT3VqsiSbvMPlllIG4Y4/UVHBJenxBIkys0UmXDk8AnHP1OMVRuLC4/tuAl2a1RzNt3EhD3wPfAoA19Ky2uWoUDCzoQPTDZ/pXmuqqFvbpVGFEjAfnXqmhfLfC7c/Lbs0zcZACKX6/8AAcf8CFeS3DF97t95jk0AVqKKKACtCwu5rG7hu7SRop4WDxuvUMO9Z9TbjigD1K31C38R2xurPEOoKmZoV7YHJA/u+hH3eQeMGoZ3ZkEe/wAqZSDl1z+BzXnNreTWlwk9tI8UyHcrocEGut0zxnCyCPWbMzKOjxbRj/gJ6f8AASKAN2a8RpV3MA6k5wOhpyM91MEiXkjczHgIvqT2qsPEvhUKXkhupmxhVMGCvsCZDWPqXjfClNFtPsvPE8hDSD6YGAffk+9AGt4p1qHR9Fk0exO69ulxcydPLjJ+57FsAnuBgHpXnMn3KHlZ2ZmJZmOSSc5NMdsrQBHRRRQAU7dxRRQAbqN1FFABuo3UUUAG6gnNFFADaKKKAP/Z;fillColor=#B2C9AB;strokeColor=#788AA3;fontColor=#46495D;" vertex="1" parent="1">
          <mxGeometry x="625" y="860" width="70" height="70" as="geometry" />
        </mxCell>
        <mxCell id="jkG0jeqMukQhXpEhHNDx-11" value="&lt;h2&gt;Normal Tissue&lt;/h2&gt;" style="text;html=1;align=center;verticalAlign=middle;resizable=0;points=[];autosize=1;strokeColor=none;fillColor=none;labelBackgroundColor=none;fontColor=#46495D;" vertex="1" parent="1">
          <mxGeometry x="585" y="815" width="150" height="60" as="geometry" />
        </mxCell>
        <mxCell id="Yb49i7RBSxxQchdh70Vk-2" value="&lt;p&gt;&lt;img height=&quot;75&quot; width=&quot;60&quot; style=&quot;background-color: initial;&quot; src=&quot;data:image/png;base64,iVBORw0KGgoAAAANSUhEUgAAADwAAABLCAYAAAAs2+QLAAAAAXNSR0IArs4c6QAAAARnQU1BAACxjwv8YQUAAAAJcEhZcwAADsMAAA7DAcdvqGQAABTiSURBVHherdxJzJ/TFwfw29ZUcymteR5qpqi5IlohYiGVSGzaSGyt7K26ZGNjJdZCCDshQoSg5qE1z2ONRc28n9N+f//b5/d7X+3rf5LreZ47nHO+Z7r3ed5fzWmt/T3ViubM8fg/+vvv0dC/UtbOmzev7bLLLu34449vCxcubIccckg78MADi9dPP/3Uvv766/bHH3/U/AMOOKDW/PLLL+2jjz6qsc8++6x9//33NefPP/+s8f8nzQh4OuoNYQ2QO++8czv44IML4KmnntouvfTStu+++xZ4AH799dcCttNOO7Xffvut/fDDD9X222+/dtJJJ5Uxvv322/bhhx+2l19+uQzw1ltvVR/wf/3111aJW2h7dR3SvKl265bb2THZdddd2z777NMOO+ywdsYZZ7QTTjihvKsPyK+++qp9+eWX7bvvviuAv//+e/v555/bjz/+2DZv3lw85s6dW94kf88992x77LFHrZ8/f37NYWBGGhp6NvSfPcxDRx55ZDvvvPPaypUr29577118nnjiifbBBx+0DRs2lFeB0r/77ruP7s3lPYY49NBDq4mORYsWlWGE+N13312e1gJ6NmCj86w9DARPrFq1ql1++eVtxYoV5VGKPfTQQ+2TTz6pEOYp3hWymzZtGgFGQp5MHn/ppZdq7dtvv10pol+KHHfccWUARsFHJPQGn46mmzMrwBQG5KijjmpXXnllO/bYY6swvfjii6Xwu+++WyA0IDdu3Fj3DGKtME14u5ojZ4U5IwEMmPDef//9y7gigRGt0WZLswKsEB1xxBHl1WuuuaYddNBBBeKuu+5q69evL4WA+Pzzz9sbb7xRhQcYIcnTcvq9994rkOZYK3xdjStc33zzTclhVNX+mGOOaa+//vrIiLOlMcAJhR588kbjoXPOOafC+MYbb6zq/Morr7Q777yzFAKGJ4AEwLhoEMo8FeJFz0AZYxBeTEVW2d98881KG4Xx5JNPrh0Ar3feeaeixbw+dIcOi859/7QenrSY8nvttVe74oorqrgIZR7lLSB5hod40lxVloIiwJXiQhVQIPEyhxGtAyDbD+C8aR3ZrgokgFKEYUXSvwEe0nYDRnJKJb355psLLMH33HNPCbeXPv/886U4QA4VQlHhOeWUU9rixYtrPa/vtttuNYYXwNboD2BGyVWhEu5y3U6gVixYsKDqhXUM09N0GNxrY4DThiS0eHXNmjXlGV599NFHSwmKU0xOUmbJkiXtxBNPrO3q8MMPL+8AplHeldfVAbxKkakQFwG8DSzPuarSjGuPf/rpp0vO+eef3z7++OMyiH0eDfWehAFtV9GihOLBU5dcckmFL+/yihzsK7G9lTdV1xwiAOF1fL744ou66rfdWB8Z0iBA6eJq62Kcs88+u2SYz6hkSx2Gj4G2h/4VMEUoqyKfddZZ7fTTT699Fkge52VbEQWEb8DynNClIMDAaACHr8hgFEYynxH081yutil8r7766uIFmKJ17rnnFr9169ZVAZsV4J4CXnEh8KabbqrQfOyxx2oMQDlLUV6gNOWBFLKU09xTXoGx1ajewjd8A9iztYyrD1/r9QPDk0j1Fs6MbS6+imVAB/h00TojYAwVCcwvvPDCsvYLL7xQQhQMwhUnngnIeDJejVesyeEDb94DLBHECEgR6te74m2OECaT0ZzdESPZ6+lGRmiHASNAvAxce+21tSUIR9VRoeBhiqT6mhuwWu9l4DRgPMs5PGIIYM1H5vG4Jlf1u5Jvv/f6SDYD8L4C9uyzz9Y+3h9IdgiwyZSQr6eddloVjKeeeqoOAixMCQqowBTkJYCTt/EMHnjFi8ACyFOUE9LJ2+zT8WjuGRM/EZXDhrW2KQbDwzhZaom+6cCiLaf4AVEAE2HDukKId20pQgcR0CsHUJoxPAjWGAVIClMcaN6xLlFgHZkMpt/VnEQPOWpF0gBgVVs+A60Amm9sJtrGw1GQYEKuuuqqCi2veRrvCp0oRAGeTjjrj8AeuHW8omhREHiGxBsQ3sXPXGs06xnCPd7uXZG9WFgnVZYuXVpXIU8/UTAdTTQHSzk0UIoBKJnDPQUVMicl9+ZqFJajvJiKaW1vcc/ZsswBJp7soyOG1+J5TXRZp5+RzP30008r1UTN8uXLy/gz0UTAgNjsWSoANERZnsGYMrylAYgoA6QWpXknwDSRYH7mUTyUNVqeMydeJhfRj2zO4OGjjz66dO/5DWkiYHniSJetB+NU05yRgSbcuHwi0Li+5KRnCjOSaMm6KNUbhgwtAAMYuceXV61PNNGJ4dQX987z0Ws6GgOMOWUw9VJg+xBKBNhHhRCLagQZd9+/8xKIj3v91gLBEPpEiysAjIusZWCGo7x78sm0Hj+NsWyFiRLrUiPwZdS8VU2iiYATQoRFIBCE8Zb7eMh8CqagMU68FcAiQL91UiEeZwCKUZbxFCPPGp4xoHs6JIqsz3aFr3Fg8QE4tWcSjVVpIBQl4eElofeacM4XSRFA4XgEsISkPKUYoO+//34po1/BYjTKRmmFUNTYQ/GxxeDD0DxMDgMAbC7Cn1x6MZTdgsfpSCd8fGYK9d4eA2yhLwtnnnlm7XMAC1tKGBMuwo01edUY4cCwLmMAQxn9FDaXEoiH8dFsUxS25ZHp7UkOAsvbdgegtey5STPPDGoueakZdGAYX196oKGxkGYlZBGrJjxjZQYgCAjCAIlnIxSZL1p4lNWt5Ukgk3OOiYCZAyjPIevwYhR8GY4suulzTYibF2+bw/CckrVDGvMwaxHOU5STI5glZwHBWF8PVEteuUfma+YA6JBvfaKDF/BwXheWosHaGA15tp4DnPxy0OFloCMbmeclh27PPffcqJ70NNekNMo4ogktQjFiMV8b5LX88ubkZOOcTVF9PMNT4ZPIQHjwIIsj3559g3bgRyliooBxeAuZD1z4cIC5xn1ZEWXmqDV0NpdsRHdz84yi21hIJwcNYqji+dpB6YQUgJp7RjKXwkPvEpw+cyjL6moAhYExz7jmXl8aUvDcRx45rqX81Hz3nCFC0HD9kOZSOISJSmyxe6HNg7yZ/JKzxhCm2TtZOPkaoJTRlxC1ljzrkhIo81314WeuME7Bo0ty3SmQHHrg59uYvvAWYQwbbNEXVUj3RHEeZlkCjKuMsaYmh4Ww/uRJPIsobr7mnmAAKW8eHgAyFjnhG9DWyWfpJL3UBsWSAczHy1mfZ9UC9w4j5iQi8Oqx0UEbC2mCCMVcHrhXIFwxiMUx9axhlNxLH6UzlucASYsSwzW5p3QMSZ/IYBzrzQOSt83r9cr4kMZCGjNXlmNhzGzihJtrLxQyDJBw1U8hFGAaMjfKS4vsAK76AzqUtfiGd6IDYHysN6bfsRbIzHM1p+ff08jDBllJ+AApNNzrt18qXg4HtgZMCGEc4c8w8ohVzQ9lHr4OBKq9ipoXdn8vEooMzDAAubdGQ2qKRhfj2QFiEPISyuQrhjxtjXFED3y1bUI6oF0xj/LJC2TcQoQR5pRwb37WeE5DjAN0+DNqCiTC39xSaiufNH0xhjk8iV92C94XYSKOPubEWUOqniiFIau4Jh9iVVbMySqW1a94OUdLgSgcxbLePYAiwXoGNCd7PooO+ApJjXGAA4bseMyzkMVPU2PIF20Ja4bsnRMaVWnMhET2O8RygGKCYYRimD6WjDV7kH3TlxajMYBmHV6Zm3vGZBjNTgAkfYzTM7uDVJPHztbmOh2SQacYvqeRzwmmgInZjjC0wD2Lx/soBorixjMWcNbim35AgHUNxUh9i5JDbwPNAbYzwJKvtkfPfX7HCZEdGlVpk3hXiAgXE/VphOmzTYVEgRxkHPep2Cjewjvr8aMQD1EyQF1zb40rsg5figtVsnmYJ72EeO20Y0gnf3pxjy9Z5tItTuhBjzzMS8KDcIIDGAkVYSOEKWRbkCMUscZaggOEZdPCD1ChZr0W8K69QuZnTNjyonuyVHcnKocjBRAwY/jRVcTFSKo/wCF8S7etzyOAGRgS4RQWUgkrIcaiWkBRFp8Yy3NCkVHwJsuVgWKktIB3Dwhj4w1I1tBDH2JU8slzz/iAizjPvTHRWN0mBOOQBSxFCA+riP545Y0lR86ErDkUolzCicKAmmsN3jGGsXgIgACOkvpTnPqQzq/1rE06AYqkpbkBjHq+I8AUxSThIoQQ5eSvA4cthACNggRrFEkBS4GxXTGMV0HvwfLM3BI6pQiw8lC/Lx6pwIkO+jASnbQYTbSoM4CZhw9DW4svsHRBvfGA1kaAhZ4wZU2AgMYkjAhIAXHPgq4JaWsIco+XwuKbGCUpy1PmMCiF1QDKB4i5ogeAEF0o7AoU3uTSAS8GdgU88wIwIT+k0T7MorwCNMY+ass71sUIOEryskLFIPnbEwVY1jXh/+qrr9YXDV61ZVBAIXGc9BMG79gMoxj6268/w/qBTPI8ngaIjiKAsbwhMRjgZJLP0OaSQVcNHhR8Icl0azoJuvjii+secL+hIojVnaOBpgBBmlAn0JX3WRxY3vJ3HhUWKF9GfNh3ljafspRU7fFkEMCtZWQnsNQAZJ4+cwEDxrzkfZxivnd3/EXPww8/XGPmhLYpWhYRDCxvuQJMAAYa8OYJc0ontESFPi2eYQQeoSzv4mmecYASKaJGP97ASyOER6LHGooDadxcaaIxqmbMGjr0BumpQlpnmg2cZ+x3rMMAFquOciyewAxQihCAj6ZP6APqDYrF890pSmvWAMIQvpMBpl9aAYGMMwiP0YkeZDO8e87Qbz6n0EkU4E1PfXj2VCG95XYLESJXhPYzzzxTjFk0Xx4opvEQTxPiGuDIVZ75gzmgrI4HMH6EImcZDxB84vkUM3me8MXLVTTlPsZFqTlkaH40x9vkqAuM09M2IY14EkgCKUJQvBLPIEwJ04RXgFOEAhTXGNCaKMkrrK+Y8Y61xh0FnaS0FCH9Gn76XPWj9PfpRH4f0p6HNAbYXwJUSguFpTyjaHIk9yxnnpY8D2BeYzAejDKu+hiNkbINSRv8yBIRKrh5WdcDc299QlW/gkkeEkX0ZhQy6GNeT2OAWZ31bSsqs1zGSO64YmYORdNH4SgXT1IqY4QLZ3wpIHJ8eLOtAQoMRRnIGD4ovFC8xwG2TH/jsp5xyDFPvnum4zB/w2sMMAUBckqSU5qFqdKYBwglMNcw6wUoJNlmYmkNqHhfxJiHrzFAwyuk33ry8NNS1CKTPrzNQdbHyNYNaQywSbzx2muvFQMN01TFFDFMCaS4/IrwgGM0uSps9Qk7c3nIvsqr6oUUcgUeDcFqZMn1nMicyXNI0s8IdPCLI0bTT3Z44hHapkpHmCtGfu6HQbYqCylNYbmjmucgYQ1gmnsW1xiHBwk3j/LAKmbWKmyuFCaLDHPDKw0JU2N0AZihGIFXhflll11Wc5zfH3jggZGXeyOOeRjFmjyKWX4RC4A+DPRT0D0lCRJqABICmCvP6sNTXwB5Rnjgqz/g+qYfkZM8Zyy8tOiiXw7jCyhdrO/BoomATXasFD6Y+jW6Q4R9WKhEESA1QniRMZKPqrdQo4g5+imSKz7kGGMAcsKv93AIT7xEhDRjKEDjCHXBIcb68J1Eo5eHngikmH8wJXQuuuii6qOoqzchFRcoYRVwjoWqtzm8Kt/Niwfls7kMpBozoFCOAYEWrviLMDrECNZILY0cxiVHajncqPYiIK+b1uA5pJGHe+AmUkJxoGAOEZTENECBo1TCOBWUIngQCjQgxvW7kjXM2TTPeODFwHhYb8w6zwwXXmTLX143j86icxJYVB/xJnkZ+cEXi1IO0/xYjddsW7xAMYLwAC5R4Dkei6eS9zmYUFi/xoPWGfOMb6IhgBkc5Ufh+sy54IILqkKT4/zgT0PTAd7m9bAnCzDgUUXLAd+9X9MqDpT3xYIBhCxFgVOB9QWgNQxmDrDmGOMZ4UjxRIp+c+S3cWQtYPG4MU5wPhDGXj39izhrH3nkkXbvvfeWl62fhGti0QoRwpt+PgCIU5cTDktThJeyPcgrygKGjCsyuWrmU4JycjDFDmD3lHQ1zuBkuqeH+akbiRSG9TaWUPZvIlIMp6MxwAQlzCnAi/fdd19ZV3HwD7NyUhLmCoyfMeQvjPqt5T0NYMXJvYpKUSCABILBpIY+TVpEYYZ1b6689VEBMPzw4QD/Mo4hgL3//vsLMANMRxMPHiHPyUPgAGVRwFhfaLmPhVM9rdOEa8I9fBiG8RDj4ONNiTGsMQaMxvsOESovw9NBOqHVq1dX3uK7du3a+rphGxX+oeCJA9EIcDp6Sh+mlOItbzNAGAOA9QmhoH7MhWXC1ZgQ9Mx7ip1+PPUzCl7ClrcdNfGN963BE29GsVsongoV3v7dxYMPPlhg8TU31GPK/bypm4lFC+nHgFLChpKKhCZ/eM6Zm+Je2hmEUJ9lKSC8KGWe0ATCHgkEgOlLv+qbP5tYT6awZWxvRowrra6//vr6IOEj4e233167SaKGzsEzvKKp+zmT6/eAWFg4+QdYt9xyS3naycaXBQAff/zxAm6eyiznAKMkQwGu8V68ymPC2lFRE97WGsOHAYE239gNN9xQJz4fCe64446S/eSTT5bhwjPUh3FP5eGt9zMShhQHgqIKjGsKk3HKAk0BIawPSAQApY1TxHhyONfMIccckWGMN/PVExAGFsZ+nymKyEFDgBMBT7WJgPvJyYsAduSUixTyD0B429U847YxQCkvHEWCxjMqLGDyk8E8u5JHcYZQtUWC9Fi2bFkdba+77roa953qtttuK+/aDnvqdXYfvVHG/HfU2y+Yicxjea+H/lmtf7Fme6C4rUy1FopAOebJTXkaEOaIAmBFRbyoLshZ9yJHCjGOQubAY9uxG8jvRNCO0qwAJz+Epzcpee0rp6u9Uz5SSONx4HNSApaieAALkMZYtj1GEBlIlPA2kKqx/6+AmoBv770doVkDDlmTXPMvTYW3nx77F6Y8xGPGbFs94ZE+9wwiAnhT5VethS2gQKYKz5ai85S+c6buRw/bZbmhYTxrPMQ7ihiQnu2bQpQHGcAYj6a4CXUgedK9NACOF4W/OTw9DN/o0Os81L3Xs8P43wFPIoCAk4uKlfxUuBgBYFGRw0b23GxjdgB6zKRLdOh1Hs7v9dwy1to/89W535lR5zYAAAAASUVORK5CYII=&quot;&gt;&lt;/p&gt;" style="rounded=1;whiteSpace=wrap;html=1;labelBackgroundColor=none;fillColor=#B2C9AB;strokeColor=#788AA3;fontColor=#46495D;" vertex="1" parent="1">
          <mxGeometry x="70" y="210" width="120" height="100" as="geometry" />
        </mxCell>
        <mxCell id="4aXJdMdzk_CL_00D9c5z-4" value="&lt;h2&gt;&lt;font&gt;Feature Extraction&amp;nbsp; using&amp;nbsp;&lt;br&gt;&lt;/font&gt;&lt;font&gt;Gray-Level Co-Occurrence Matrix&lt;br&gt;&lt;/font&gt;&lt;font&gt;(GLCM)&lt;/font&gt;&lt;/h2&gt;" style="rounded=1;whiteSpace=wrap;html=1;labelBackgroundColor=none;fillColor=#B2C9AB;strokeColor=#788AA3;fontColor=#46495D;" vertex="1" parent="1">
          <mxGeometry x="230" y="630" width="310" height="90" as="geometry" />
        </mxCell>
        <mxCell id="KbwtScOcqvufNCTyEEZZ-16" value="&lt;h3&gt;Preprocessed Image&lt;br&gt;with the&amp;nbsp; enhancement,contrast,&lt;br&gt;noise removed image&lt;br&gt;&lt;img height=&quot;80&quot; width=&quot;80&quot; style=&quot;background-color: initial;&quot; src=&quot;data:image/png;base64,iVBORw0KGgoAAAANSUhEUgAAAFAAAABQCAYAAACOEfKtAAAAAXNSR0IArs4c6QAAAARnQU1BAACxjwv8YQUAAAAJcEhZcwAADsMAAA7DAcdvqGQAABpPSURBVHhe1dxVjCX1EgbwXhZ3d1vc3d3dnaAbAgRLIDxBeLi88EJ4gIQ3IDgEDe7u7u7u7rp3f8V+k8Ps7B6bgXsr6fQ53X+p+uor6T6zO2rMmDHjfvzxx8Yx88wzN1NOOWUz3PLnn38248aNm+hwvfX+L7/80vz22291rVVcy9h/U6aZZppm3nnnnfDtLxk1zzzzjPv++++bP/74o5liiimaUaNGTbg1fAIcMuOMM5aDWgF0/umnnwZAytEqmf9vy1RTTdXMP//8E779JaNmmmmmcZSP50cCwKw5fq9m2mmn/RuAP//8c7G/FdD/VRkSwAUXXHDcF198USwYKQGgzTFQGGB8wPr111+b33//fcLI/20ZCsAppp566grdkZSwSo777rvv6gw4Z6nj/1lGFrkWwThMA5rz4MKApTmSi6ebbroqbI7ZZputDikg94c6stZICH2T6iKjFltssXGffPJJ88MPP0y49M+IYpKiIqSFhwq39NJLN3PPPXcdX331VbPIIos077//ft0fX/AqBXz00UfNI4880kg9DPrmm2/KMXESxjsPd2rgmDnnnLOZfvrpJ1z5FwHELoxyBtrKK6/cjNel2AaQDz/8sHnttdcq1B2jR49upJvZZ5+9mWGGGeoenbFxlllmKbABLUX4HKYPt8wxxxzl+Mg/DmBCbb755mtWW221ZvPNNy9AGP7OO+80b7zxRvP1118XsPLje++9V99VaywE8KyzzjqQV43baKONao2PP/64gH/11VcbNllzcMj1KzoJToyMOIDAEnbYAACGCs911lmnWXbZZQuYF154oXnzzTcLqG+//baA42WhTS8dQoDHOGu4bz3nxRdfvPbA0CWWWKJAe/DBB5uXX3655juGg432l4Pnmmuu+kxGjw+j/9hguD3VKoy2sVBbfvnlm5VWWqn5/PPPm2eeeaZ59NFHm+eff7759NNPC7BUZ8AyenDiprjrzgCz5rrrrtt8+eWXtQZmrrDCCs1yyy1X45InrduvSCMODgyAI8rAbGJDoYcpQgDTGPbZZ58V2xjHcCArKpiFUe7RK09KrgtZwBnrc4CWT5dZZplKCUKcg+yP3ddff32lgoR9rxKnYSAgyYgxMN4CBJasueaaBQ7DAGfPgGQco313qMZYKsTz6EdpgC255JLNDjvsUNVZQsduDgGy4kEADbDXX3+9QF177bWbd999dwDsfoAUEXS0BxkxAG2AeY6dd965WX/99Su5CzWGUITxPCqPYSYPO2+44YbNoosu2iywwALNwgsvXCGtMhM5DriKEIBVcGtyhLWA9tJLL1VBkVeFtRBX5YGYsf0ImwYAHB9a//EsatF+Kd4qWIUxW265ZTHmrbfeqgrLUa0sAJpDYUl1A4T5vgOK0doW18aMGVPgSgnukeRBBzZiH5sAD8APPvigWXXVVatwybtxRq/SCuDAkwg2DKcIPWG23XbbVTW85ZZbCjQAchajNcYUAcY222xTQGMYQIGz1FJLVeimaGDn+Gf3urbiiisW6PJnwHRduDIQeBxB3n777ebGG28shxxxxBH1POvzcNg8Yo9ykrz+THq4/fbbS2EGCV0G6gGxU2HBVMYAZKuttmr22GOPOgPm8ccfr/4Q8EJfswwcTwPA1+JY0z0Md9aQu8dJ1rC2Na666qpyCjZyMKf0KyMCIOUWWmih8rR+jKKMUXmxSRLGIK0GY4B95513VniZI9Sscf/99zf33Xdf5S4gqLTGCktNModoi+RKgMql9rKH9eVd98zBXmnkxRdfrPWlg15FJCUFDTuAlFVRN9tss2KWfKMQYIBKyVA5zDghBwB5Tc7SDwIGAM7aq4Qo1gpfY81z3RrYBpA11lijrmOo59Wtt966qjQdgMpgBUchs//g11K9iDWHFUCKYoXWAbOElHDTungBANhNN920DMY+7GDU6quvXqEl7DBPWAIPaMB3YIwK+9xzzxVbr7nmmgILM5PrHnroodpvrbXWKoCfeuqpKijCX3EBpicdc3bddde+WBgZPd6ogSosl/QjFALSQQcdVOsJF2tL4kARRkAT3kIMg4QzgBin6MiN2HrxxRfXfL0dNsqlgJLjtCjCWj+JwdZ5+umnK9daA/AckVDDfHoYDzx6Yuxjjz1WFb7bXJj8S4YVQItimLB64IEHytuYxPupupj4yiuvFCtjvHlCSgMNIOx69tlny3Df6QU8lTb5DkBABb51jVft04wLU+M51HfgJT0AVVpw5ghrddMHtwJYIdytByYlkrjErYGllPwHMOsDVWhhiDC77bbbqkgAJ6xwbi00Krd5QHDPNaG+8cYbN1tssUWzwQYbDORD1dzanGbNtEHyoc8qPHHPeOHv6cj8bkMZ8JFiIDSFGBb2IgCixNixY8tYIYZxGljs9sTg8BiGZYDALixkpLn2BywA3GcwQLAMg41luPy63nrrFWB6RpUZI6QHe1h/lVVWKcC9qHjyyScrJaQgYTR7OQdLMU9hsXenMlEIMwCqFu9WUjiE1p577lkP767Je5gINE8IchvvA8jmAMZYoWs844AI2BQPxnksM0cuBKa5gAIw0OiN7QlN88xXwC688MLSATiAVcWFMpYD3v6uA5qjO5WJAPSBAt0sEgE+RVRWAAEBGPo3nxNagLQpEBQM3gcEEKzBCWEy44ABTIe+D4j0AzxnyWEMMY7u9kYAe0odQJRfhbBca3972V9lFrrWAn4e/zqVIQHk7V4ApKQco6oBDpgMltBt4poxrgNM2yIMMQgIgBNuzsBgJFYKMaJKCl8AGmMegAEiXQCP7vawjv2ApwcEnBcT9sVC4axaA9k6ugHXtVSeeDotpK0A9t0H8qCeT94CACPiTYZSlIGu++4AksO15F1AMEz+dMYOb1C83/P2RXU/8MADm912263ZZJNNqqG2N4aaCzjrAT7O4TRs9zlrJ11JMdgoNdBJPmWDNTqViph+GcjT+++/f1Vb3rOohpdnPetiJuXyMjUGGGucw3Xskuj1ctoYLNSeCFdrqLiKh89ymfEezYRr2Iel9k0faA8AY7F7nCKk6QpQFZ6+gKajvhAO7VhoffuTnhloY94VHoRCwHGWpNGcQyjr6UExSCFgJMM8+7qOsWHjrbfeWm9OjjnmmOaOO+6o9YRLlLYv8Zb50ksvLRDNMwZQHgcVMvnQ4UcmTy7W0gcCm8OAlNB3XbhjbzcMJH0BaHPMwAKJGCgAYxCWaZjzhgTYOYQKpQENTAwwRqjJa+YC5qijjmpOPfXUAsE4Y1TMww47rDnyyCObe+65p5wCZGCYp+rKc3kPiNVyn+Puu+8up1mH0AFTzffZq7fktk6lpxAGHk9pAQ499NDmiSeeKGYBVG4BqDEYKXQlfKEnN2ERJe0FQJ8lcQzDCnM9wslpDGW4NzrGAe/EE0+sULOXHCkshSLhRNXf3nSzP4AUC3kuTzGcATDOpB/bXZdnr7vuuiLC5GRYiggWMYDX9VbaAgxSMSV1B0OEFQCEHHAAQ2GAyXFyHSOtwwk+WzcJ3TpC8uyzz27OOeecYpYxniLkQmPMdXCA76naxtHJQTANePYxHntTec2hizzbDQt7AtDmmKTjBx7FCFYBifEACjt4mbcxjvLGqIg87bqxGGUt9yR64HKAw37CWHogDNUwA8g84+2FZdiGXYAGjvP5559fj45alTjAmvTxHWD0cngzLqVg76Qkejl6AtBEXvUYBghGYIqKSjx1eB8IGJ7Vcmi0GWiuawpFnpld4wQGA59zAMEIjPI9THMtf15hX0Cah9Wu20thSy6lF4CFtDdAnor0ocLQHDqIHnO9WOBwzrMfvdrJAIDJF52IxTXEckoYR4SETRmlNxRm7t97770D7+4YlSTOCEAIa+MAAXSsBEDAJT4HUMBhjWvO1hOGPgcoTz+AkF8POOCA5thjj2323nvv2g9wogJrOS7rKDrum+O7vdrJwAgTHJ2gThQGBqty8bQk7rNQkYMA6LcNTyqMF+KuAwtQvG4/94DGYDoEuADuCAtdBwDAjGOwM7EOUKQC7xO1L2mUOduenIWBnlBcM0dqEM5sYYfG3Zr2aCc9hTAG8JINeJ/xznIIQ+Ug1VDCFs577bVXjQeE1sZDvsJAgGIuZ+QpwrqKj2sMDBuszTCssRZgsN9+KQjW0gJpcc4888wqPtgPGPewU0cgbI3nTLnY+vTlHH8akhTQTroCMGzBHMbYWFNqI4q4z3vyjBBirFwJGOPdx1KJO9XaegBzjyMYRqztGpDsh1nODMVke+Zx0HxnxmOYsfYGrL4PgAC2F9YZq1dUmOzDWcabC0QOw2zj20lXANqYx3mHMQwGQnKYnCZcvVTVlGozogRvY6j5ig8WCxlrWid5zRzgtLIP+Cqv/GZv1+2Jra5zFn2sDXTh6Duw6CJfW99c973o8HREd4AB12cgmgc8b4uMbSddAcgwm6iQjBIScpozZiVMMAHDMIVyDt7WAAstY62DOQHDd8zBWOsANqwi3mZ7XgUawIBivDWMsW/AkAON8fvy7rvvXrmPc7GZ3tbwq50fs+xlfMjR+hOqse2k6xyIGQlb4GGIA7sYwxDPnRdccEFzySWX1NtgOUlO9Apfq0NJcxgJQEYIN+FkXfkSKxngPnDlJaBhByAVMWPM4RBOsLf5mO0RUovi2frqq6+upxu/0hlrvmZdywJYczHUfnSTY10HZDvpmoGMZTxvJS9hDWNccw6bsA5wgAau65TCCOEk3CluTUBgDxYBRwgZY7z7WKPHU6nz2zB9pA45NbmLLiKEo6688soCzw9cV1xxRXPuuec2Z511VoFrrLWRga7W8h242EfHYQeQ2MjijBI6GOIaY531Uq4Di0dVWwZQSu/FeCALcffDWnN9DhMBwwCMt5e85R5jiWtYby4G+RxHmCPPYrgwTV5N5HhlxrHG2tNeriOAFgfLOci67WQiANslTvfDQCBRlhGUsSE2MJQx7gHTjzaU9qIBaMB232sscznBegDDJOEm9N3znXHWVU1VTKEo1MJq4abS28/LB2MBscsuu1QvKn/Kh/vuu289IXGitTHeeoqOufQQEfbjZOu3k64BtAmP5fnXeJvbzD15yjOyv5Jy9vOjkAQ6dmIeJbFY8g7IDvcALdwYpQhZf9ttty1GmMcJWpPzzjuv/uQN8AC0HsdxFklKiK6ONMvWpC9WczodrOHsmrGJonYy8DoL6iZaxOehBEAYpD2Qv1A9PwkynmI8r93g4ShPWQzxiJeKbB9M9NxKUay54YYbmptuuqkSfby/33771Rtvuc94a3pp6unBE4+0IO8Zj7UYSBc5EMvpxFH01PuZoxuQWoQ9PTgmj28+E22OtYYKY84ylkzEwCg+KXGf8kCjuA0pgvIApbCqi0leY0nYikgAyxOJa0LW51S/1n88w1mHHHLIwN/zcRqwjj766MpvGMYRl19+eZ05inAGfRzeH8q/wBD+gAUmJ8rJdHGmF7ZjuR/t6ZOoaCddFRHgWRRbKI0N8gtjecR9eU2Y8RzD00y7zhBAepQyL+8Tgc7byWtkn332aQ4//PABpxB7eLNy+umnF6DGYlXYj/lynjQCGE4FBmCsIyrsbw1PTBwhvbhvrEpPH+Cz0dh2MlEIo/2kJGXdwsk7qhzGYSXvYhClKcYQz57GMIChzoAT6jyvqjJeTjMfSP446YQTTih2Y+rDDz9cAOcxDAB+mbv55ptrTbp4fLSvApHwAojKyybrAIbO+j/3zPM6jj3WprNr8qBUwia4DJbWEO4KQGMcNmS0hYDkc97AuC9f+ZHGwSChTkFgaoj1aTyevjG5ytzjjjuumCcUhZq8qCGXEgAglwJFDlagRAI2Y5E51pRrgaFHBaoo8D4SO/V5nOCeNKAgEa/zvaHxssMfKvlTOfsPJT0DGDFWKAsTDMIkLAEgIwKGvEMhv7xpTYAFvCTqiFTAyO23375AZzTlNcH50w7g0S+9oLXs75EMeJwqVdjXIZyBxWEAx277KlqcaazIoRcHY71xgFPdpYa0UIOlFcCucmCrWFxe00fxZprVtBVCC4Aqo5woLPRvWhlhzvuMBgqAnK3pnrAyLmkCaBQWeg7fVWp7mwMYjnMQaykKnGys1kVBu+yyy+pxMkylL+eLEjZ49OM4udq8SUkrqD0xEMNyCGFexRq/zlFIfgOoPhCjMMEZG4S3sfbDAsbk9VSqsnUxzDkOcD0vFHJPUVCsFBNzw37Xgafd8SzMCViG6VjnzAHu+7zTTjtVUeFgIQ1sWHDwUGIPzrVnTwxkDKUZjjG8JecABJssDERVDpByEvB8F342F5K8nVdUjMcmgJgvPK0p51mXMSqjz3q6iy66qMLM/mGbe5iaEDMem7yZBgiW0R1wIgLL7amdYYPDeDpgNaAmJ/TsiYERRlFKVQWSP8kACnC1MAFaNVME8nuuXGMvChvj7DtQMY7hrgNBqOvlsFYhIApLUgJj5VUAWjfCeDoASErA4oCEwfRQgISyH+o5AvM8I7PBenQfSjiKk4YE0CSf24kxAVBL4Uck1UvRsA4lKOuJgFflRAqbg53AoTxhLCPN975QGOkJ3beGQgIc4Ys9wEgew0bght0A5QhEcN9PChhPH0wVygFWbpRmvDOkGwdLQ8FhUkJf9tu35yISUd3kEx7zl+8WpzzDUz15m9eFsz840scBgAIO981noHB2n4KZD3Rryl+cYayWJBVYB2C8Na0FMDr5Uw5FA7j+vZ4fuDTxxFrWFD1ypnDGfg7oRBKpEwE4OeSHEp4UonkqSRhpmLULCoz+D0P9uCQXMrD1CcOerpkrHPV42CYPChegOHOWkOaItFA+Az1sBrZ1FStM9U7Qn2vYT7UFEH0x3FiPblKGw7VOAYz0zUB0107wHpYBisgpcgQDVTh/hKRgaBUYAAhhHSZikHD37OxBXy6S57RK7hlvD2Brj7DLsy5QhSTwMdN8TT1W+TMNOslt+js5Uz6VBoxVPLwztIfej8726kb6KiIRIYI1FPImWTGxlvDDLGyhnJyDKfZgCDC9IHANiGm4hb+58hbnAAnDMQvgDtfcc80PRxhrHSELROulwQY4QDFSqHKGNU466aRivJ8g5D8ONL4diKLBfLb1zUCb8SCPpn1hEJAYCBDFAVuAwhDK+g5QyjBW3pNDOUC4YXJ+t/Ddeiq9X/ukAenB86wC5t2jvY0BDhCA7zvHWptT6Gp/oEstHt2AxjkcwoZOpDXNDQsDKShM8yMNY/ReMca6DmDJM5SmrDfGWMI4LLUOMN1XUIQfANILKhrCVQhirj/5VRSspaoT7AOGAmQNxUR+w7w8vQDAazEVWGhzMqca32kNoCfH9s1AAhyby1mordJ6HcXbWKbVEEbyjDBlCO9rMczxh0aMpDz2ei7VRHMAQDCEUBhQwDFXfgWMIqF9AjJHYJ9w9X4xLREnybmKnijhvFyTXuzVLnQHCyb3zcCEoHBiGGZI6NgoHwEQI41RGd0Xmv4tsWsabCCqqHlKUS3lJnMxxnyHsAsbgSAlAE9RAobmFmNjC2dyrHvOQOKAsWPHVlPOMfbGeE7ulH2Ao3t1B/0CaF4WBBwQ85MkoO666666BhjPnFjDMCLpYw7lgeAzoOQ64YtFGKX59VmIKxacYD1VWbjSG4OxmyM9n5vDIfQz1zifd9xxx+bggw+ue94xqviqtkbe/U6E/ikifQPIYHOFqzbFd2HBUMZgnXwobCmJAc7CGehAyQtZoYZ1gKec/IkVGCQssc5LCaHsOgZgHLDpgGH2cQ+41les7GUtrDvttNNqjrHaG/sC3vqdigiYJICdlPHBEiPNByKAHJjCYHmHl/M4BwDsE1b6MKDmFZI58qDCIG/SRajZQ0Ou+gLGGgC0DjYpLsZgovv2wX6tEpvodcYZZ9R+Qt/TC/B0EPmBqVOZLICU6BZA4x1hChbKXRRktDaDktgFNImfEhQQ/vZUCd3TS2IgXRQBTPF04L49AIFxQAKsZ2fGyH9YJ5/Rw34cJqKklpNPPrkco2B4GWEcXe3hbL9OZbIA2rBbACPmAQF4NrAeJvhNRNX1GwZmYQQwsVToG4M5DAU+ZvnsjIVaDeBY1/oEOEDSkAdkYGhxhKx16cNIf9nvH0LKg9dee23lRHO8DpM+sK+b1NUWwH7EfOs4gCEnYUp+bJcPhbT9KA4gDMCo/K4hrAAMaGxiJAGKse4D0Hxs9l0fJw1YW1gDXyt0yimn1E8FdPByFYjW8FinaNGv2+ffEQXQOkLSOthiM4arxH4582/dhCPgSJQBoFwmxwlHAGESlgJEAdDeAFTh8RJAL2ieXk+6IIxSuTFe2HrMBJR2hz7Y52+2nYHa6dNHq4wogBG5zcFgSvIypkj2/lTDGYhCyd6A0HrIcUIVM4BonrHe9ADAekAGtvXlMszjJEYBV5ty/PHHFwuFqbCW+xSy/H1ibLV3tyKyAuCo8VWpVsAam1i4l0UHi00Ib9kIMPozYaXJFtIqqb8jlJcAI2SNVyQIPSgKLGsAEKCuM164BgjzvH3xb+z0oRpkfZ78aryWBdhJH6SXjoOwjT5eJg8ASBghP/Sy6OSEcVoVTxGeMLQSWBUw7ev1lf8eCpPiYQKcMAXjYrTDuuMjqFKDx0fhitFShBAV2sKXTVg3XHbRQ5qRs/8GoKQsbIZbgEf5AKPC6vcwxVNHXhi4LgTT2xmvSNBJiAdELJJTzTUWqJgIfIwDoAPjRBXWcsJwSQD0oPCPAGhDEgAcABHCwMMcYAJQ+AoN9wCYtsd1aSYA5rN8mZcBcqx8qCUCZgqEsY5epFX3SEKYs/8RANsJcIDHqw5sBGBCH9gOLEoe9Fno0xdYdHcArVewBsvgVBKnuYb5E+VACvDmcOWKbiTKhi2+0wOAJLnPPWfgMsb1GDkUcGFQzq0y1LVWsQegnFurtkOF5+i/AWhQ3lpMShg2WCY3vhthUCdr0QGwAdk5YADU5xxkUt8Hfx4sQIpzkmeJPYXw6NGjm/8CiqBjdAXP/h8AAAAASUVORK5CYII=&quot;&gt;&lt;/h3&gt;&lt;div&gt;&lt;a data-designer-clipboard=&quot;{&amp;quot;clipboardData&amp;quot;:&amp;quot;{\&amp;quot;elements\&amp;quot;:[{\&amp;quot;id\&amp;quot;:\&amp;quot;0978f192-a0c9-4299-9289-df8177acde36\&amp;quot;,\&amp;quot;type\&amp;quot;:\&amp;quot;Picture\&amp;quot;,\&amp;quot;choice\&amp;quot;:{\&amp;quot;pic\&amp;quot;:{\&amp;quot;nvPicPr\&amp;quot;:{\&amp;quot;cNvPr\&amp;quot;:{\&amp;quot;id\&amp;quot;:2,\&amp;quot;name\&amp;quot;:\&amp;quot;0978f192-a0c9-4299-9289-df8177acde36\&amp;quot;},\&amp;quot;cNvPicPr\&amp;quot;:{},\&amp;quot;nvPr\&amp;quot;:{}},\&amp;quot;blipFill\&amp;quot;:{\&amp;quot;FillMode\&amp;quot;:{\&amp;quot;stretch\&amp;quot;:{}},\&amp;quot;blip\&amp;quot;:{\&amp;quot;r_embed\&amp;quot;:\&amp;quot;asset-0e62f5bd-486a-4b68-9b52-132b3ebd0fd7\&amp;quot;},\&amp;quot;srcRect\&amp;quot;:{\&amp;quot;l\&amp;quot;:6399.970611635275,\&amp;quot;t\&amp;quot;:49036.3952036291,\&amp;quot;r\&amp;quot;:79684.14130728044,\&amp;quot;b\&amp;quot;:26280.954923438938}},\&amp;quot;spPr\&amp;quot;:{\&amp;quot;Geometry\&amp;quot;:{\&amp;quot;prstGeom\&amp;quot;:{\&amp;quot;prst\&amp;quot;:\&amp;quot;rect\&amp;quot;}},\&amp;quot;xfrm\&amp;quot;:{\&amp;quot;off\&amp;quot;:{\&amp;quot;x\&amp;quot;:7157187,\&amp;quot;y\&amp;quot;:2005661},\&amp;quot;ext\&amp;quot;:{\&amp;quot;cx\&amp;quot;:2120781,\&amp;quot;cy\&amp;quot;:2115920},\&amp;quot;flipH\&amp;quot;:false,\&amp;quot;flipV\&amp;quot;:false,\&amp;quot;rot\&amp;quot;:0}},\&amp;quot;mediaType\&amp;quot;:\&amp;quot;images\&amp;quot;}}}],\&amp;quot;rels\&amp;quot;:[{\&amp;quot;relationship\&amp;quot;:{\&amp;quot;Id\&amp;quot;:\&amp;quot;asset-0e62f5bd-486a-4b68-9b52-132b3ebd0fd7\&amp;quot;,\&amp;quot;Type\&amp;quot;:\&amp;quot;asset\&amp;quot;,\&amp;quot;Target\&amp;quot;:\&amp;quot;https://designerapp.officeapps.live.com/designerapp/Media.ashx/?id=23c725e6-f0c8-44c9-8964-1bd67836fe86.png&amp;amp;fileToken=bf58b787-5efb-4b8c-86f9-ae1aa244771b&amp;amp;dcHint=IndiaCentral\&amp;quot;}}]}&amp;quot;,&amp;quot;clipboardFormat&amp;quot;:&amp;quot;application/vnd.ms-designer+json&amp;quot;}&quot;&gt;&lt;/a&gt;&lt;a data-designer-clipboard=&quot;{&amp;quot;clipboardData&amp;quot;:&amp;quot;{\&amp;quot;elements\&amp;quot;:[{\&amp;quot;id\&amp;quot;:\&amp;quot;0978f192-a0c9-4299-9289-df8177acde36\&amp;quot;,\&amp;quot;type\&amp;quot;:\&amp;quot;Picture\&amp;quot;,\&amp;quot;choice\&amp;quot;:{\&amp;quot;pic\&amp;quot;:{\&amp;quot;nvPicPr\&amp;quot;:{\&amp;quot;cNvPr\&amp;quot;:{\&amp;quot;id\&amp;quot;:2,\&amp;quot;name\&amp;quot;:\&amp;quot;0978f192-a0c9-4299-9289-df8177acde36\&amp;quot;},\&amp;quot;cNvPicPr\&amp;quot;:{},\&amp;quot;nvPr\&amp;quot;:{}},\&amp;quot;blipFill\&amp;quot;:{\&amp;quot;FillMode\&amp;quot;:{\&amp;quot;stretch\&amp;quot;:{}},\&amp;quot;blip\&amp;quot;:{\&amp;quot;r_embed\&amp;quot;:\&amp;quot;asset-0e62f5bd-486a-4b68-9b52-132b3ebd0fd7\&amp;quot;},\&amp;quot;srcRect\&amp;quot;:{\&amp;quot;l\&amp;quot;:6399.970611635275,\&amp;quot;t\&amp;quot;:49036.3952036291,\&amp;quot;r\&amp;quot;:79684.14130728044,\&amp;quot;b\&amp;quot;:26280.954923438938}},\&amp;quot;spPr\&amp;quot;:{\&amp;quot;Geometry\&amp;quot;:{\&amp;quot;prstGeom\&amp;quot;:{\&amp;quot;prst\&amp;quot;:\&amp;quot;rect\&amp;quot;}},\&amp;quot;xfrm\&amp;quot;:{\&amp;quot;off\&amp;quot;:{\&amp;quot;x\&amp;quot;:7157187,\&amp;quot;y\&amp;quot;:2005661},\&amp;quot;ext\&amp;quot;:{\&amp;quot;cx\&amp;quot;:2120781,\&amp;quot;cy\&amp;quot;:2115920},\&amp;quot;flipH\&amp;quot;:false,\&amp;quot;flipV\&amp;quot;:false,\&amp;quot;rot\&amp;quot;:0}},\&amp;quot;mediaType\&amp;quot;:\&amp;quot;images\&amp;quot;}}}],\&amp;quot;rels\&amp;quot;:[{\&amp;quot;relationship\&amp;quot;:{\&amp;quot;Id\&amp;quot;:\&amp;quot;asset-0e62f5bd-486a-4b68-9b52-132b3ebd0fd7\&amp;quot;,\&amp;quot;Type\&amp;quot;:\&amp;quot;asset\&amp;quot;,\&amp;quot;Target\&amp;quot;:\&amp;quot;https://designerapp.officeapps.live.com/designerapp/Media.ashx/?id=23c725e6-f0c8-44c9-8964-1bd67836fe86.png&amp;amp;fileToken=bf58b787-5efb-4b8c-86f9-ae1aa244771b&amp;amp;dcHint=IndiaCentral\&amp;quot;}}]}&amp;quot;,&amp;quot;clipboardFormat&amp;quot;:&amp;quot;application/vnd.ms-designer+json&amp;quot;}&quot;&gt;&lt;/a&gt;&lt;a data-designer-clipboard=&quot;{&amp;quot;clipboardData&amp;quot;:&amp;quot;{\&amp;quot;elements\&amp;quot;:[{\&amp;quot;id\&amp;quot;:\&amp;quot;0978f192-a0c9-4299-9289-df8177acde36\&amp;quot;,\&amp;quot;type\&amp;quot;:\&amp;quot;Picture\&amp;quot;,\&amp;quot;choice\&amp;quot;:{\&amp;quot;pic\&amp;quot;:{\&amp;quot;nvPicPr\&amp;quot;:{\&amp;quot;cNvPr\&amp;quot;:{\&amp;quot;id\&amp;quot;:2,\&amp;quot;name\&amp;quot;:\&amp;quot;0978f192-a0c9-4299-9289-df8177acde36\&amp;quot;},\&amp;quot;cNvPicPr\&amp;quot;:{},\&amp;quot;nvPr\&amp;quot;:{}},\&amp;quot;blipFill\&amp;quot;:{\&amp;quot;FillMode\&amp;quot;:{\&amp;quot;stretch\&amp;quot;:{}},\&amp;quot;blip\&amp;quot;:{\&amp;quot;r_embed\&amp;quot;:\&amp;quot;asset-0e62f5bd-486a-4b68-9b52-132b3ebd0fd7\&amp;quot;},\&amp;quot;srcRect\&amp;quot;:{\&amp;quot;l\&amp;quot;:6399.970611635275,\&amp;quot;t\&amp;quot;:49036.3952036291,\&amp;quot;r\&amp;quot;:79684.14130728044,\&amp;quot;b\&amp;quot;:26280.954923438938}},\&amp;quot;spPr\&amp;quot;:{\&amp;quot;Geometry\&amp;quot;:{\&amp;quot;prstGeom\&amp;quot;:{\&amp;quot;prst\&amp;quot;:\&amp;quot;rect\&amp;quot;}},\&amp;quot;xfrm\&amp;quot;:{\&amp;quot;off\&amp;quot;:{\&amp;quot;x\&amp;quot;:7157187,\&amp;quot;y\&amp;quot;:2005661},\&amp;quot;ext\&amp;quot;:{\&amp;quot;cx\&amp;quot;:2120781,\&amp;quot;cy\&amp;quot;:2115920},\&amp;quot;flipH\&amp;quot;:false,\&amp;quot;flipV\&amp;quot;:false,\&amp;quot;rot\&amp;quot;:0}},\&amp;quot;mediaType\&amp;quot;:\&amp;quot;images\&amp;quot;}}}],\&amp;quot;rels\&amp;quot;:[{\&amp;quot;relationship\&amp;quot;:{\&amp;quot;Id\&amp;quot;:\&amp;quot;asset-0e62f5bd-486a-4b68-9b52-132b3ebd0fd7\&amp;quot;,\&amp;quot;Type\&amp;quot;:\&amp;quot;asset\&amp;quot;,\&amp;quot;Target\&amp;quot;:\&amp;quot;https://designerapp.officeapps.live.com/designerapp/Media.ashx/?id=23c725e6-f0c8-44c9-8964-1bd67836fe86.png&amp;amp;fileToken=bf58b787-5efb-4b8c-86f9-ae1aa244771b&amp;amp;dcHint=IndiaCentral\&amp;quot;}}]}&amp;quot;,&amp;quot;clipboardFormat&amp;quot;:&amp;quot;application/vnd.ms-designer+json&amp;quot;}&quot;&gt;&lt;/a&gt;&lt;a data-designer-clipboard=&quot;{&amp;quot;clipboardData&amp;quot;:&amp;quot;{\&amp;quot;elements\&amp;quot;:[{\&amp;quot;id\&amp;quot;:\&amp;quot;0978f192-a0c9-4299-9289-df8177acde36\&amp;quot;,\&amp;quot;type\&amp;quot;:\&amp;quot;Picture\&amp;quot;,\&amp;quot;choice\&amp;quot;:{\&amp;quot;pic\&amp;quot;:{\&amp;quot;nvPicPr\&amp;quot;:{\&amp;quot;cNvPr\&amp;quot;:{\&amp;quot;id\&amp;quot;:2,\&amp;quot;name\&amp;quot;:\&amp;quot;0978f192-a0c9-4299-9289-df8177acde36\&amp;quot;},\&amp;quot;cNvPicPr\&amp;quot;:{},\&amp;quot;nvPr\&amp;quot;:{}},\&amp;quot;blipFill\&amp;quot;:{\&amp;quot;FillMode\&amp;quot;:{\&amp;quot;stretch\&amp;quot;:{}},\&amp;quot;blip\&amp;quot;:{\&amp;quot;r_embed\&amp;quot;:\&amp;quot;asset-0e62f5bd-486a-4b68-9b52-132b3ebd0fd7\&amp;quot;},\&amp;quot;srcRect\&amp;quot;:{\&amp;quot;l\&amp;quot;:6399.970611635275,\&amp;quot;t\&amp;quot;:49036.3952036291,\&amp;quot;r\&amp;quot;:79684.14130728044,\&amp;quot;b\&amp;quot;:26280.954923438938}},\&amp;quot;spPr\&amp;quot;:{\&amp;quot;Geometry\&amp;quot;:{\&amp;quot;prstGeom\&amp;quot;:{\&amp;quot;prst\&amp;quot;:\&amp;quot;rect\&amp;quot;}},\&amp;quot;xfrm\&amp;quot;:{\&amp;quot;off\&amp;quot;:{\&amp;quot;x\&amp;quot;:7157187,\&amp;quot;y\&amp;quot;:2005661},\&amp;quot;ext\&amp;quot;:{\&amp;quot;cx\&amp;quot;:2120781,\&amp;quot;cy\&amp;quot;:2115920},\&amp;quot;flipH\&amp;quot;:false,\&amp;quot;flipV\&amp;quot;:false,\&amp;quot;rot\&amp;quot;:0}},\&amp;quot;mediaType\&amp;quot;:\&amp;quot;images\&amp;quot;}}}],\&amp;quot;rels\&amp;quot;:[{\&amp;quot;relationship\&amp;quot;:{\&amp;quot;Id\&amp;quot;:\&amp;quot;asset-0e62f5bd-486a-4b68-9b52-132b3ebd0fd7\&amp;quot;,\&amp;quot;Type\&amp;quot;:\&amp;quot;asset\&amp;quot;,\&amp;quot;Target\&amp;quot;:\&amp;quot;https://designerapp.officeapps.live.com/designerapp/Media.ashx/?id=23c725e6-f0c8-44c9-8964-1bd67836fe86.png&amp;amp;fileToken=bf58b787-5efb-4b8c-86f9-ae1aa244771b&amp;amp;dcHint=IndiaCentral\&amp;quot;}}]}&amp;quot;,&amp;quot;clipboardFormat&amp;quot;:&amp;quot;application/vnd.ms-designer+json&amp;quot;}&quot;&gt;&lt;/a&gt;&lt;a data-designer-clipboard=&quot;{&amp;quot;clipboardData&amp;quot;:&amp;quot;{\&amp;quot;elements\&amp;quot;:[{\&amp;quot;id\&amp;quot;:\&amp;quot;0978f192-a0c9-4299-9289-df8177acde36\&amp;quot;,\&amp;quot;type\&amp;quot;:\&amp;quot;Picture\&amp;quot;,\&amp;quot;choice\&amp;quot;:{\&amp;quot;pic\&amp;quot;:{\&amp;quot;nvPicPr\&amp;quot;:{\&amp;quot;cNvPr\&amp;quot;:{\&amp;quot;id\&amp;quot;:2,\&amp;quot;name\&amp;quot;:\&amp;quot;0978f192-a0c9-4299-9289-df8177acde36\&amp;quot;},\&amp;quot;cNvPicPr\&amp;quot;:{},\&amp;quot;nvPr\&amp;quot;:{}},\&amp;quot;blipFill\&amp;quot;:{\&amp;quot;FillMode\&amp;quot;:{\&amp;quot;stretch\&amp;quot;:{}},\&amp;quot;blip\&amp;quot;:{\&amp;quot;r_embed\&amp;quot;:\&amp;quot;asset-0e62f5bd-486a-4b68-9b52-132b3ebd0fd7\&amp;quot;},\&amp;quot;srcRect\&amp;quot;:{\&amp;quot;l\&amp;quot;:6399.970611635275,\&amp;quot;t\&amp;quot;:49036.3952036291,\&amp;quot;r\&amp;quot;:79684.14130728044,\&amp;quot;b\&amp;quot;:26280.954923438938}},\&amp;quot;spPr\&amp;quot;:{\&amp;quot;Geometry\&amp;quot;:{\&amp;quot;prstGeom\&amp;quot;:{\&amp;quot;prst\&amp;quot;:\&amp;quot;rect\&amp;quot;}},\&amp;quot;xfrm\&amp;quot;:{\&amp;quot;off\&amp;quot;:{\&amp;quot;x\&amp;quot;:7157187,\&amp;quot;y\&amp;quot;:2005661},\&amp;quot;ext\&amp;quot;:{\&amp;quot;cx\&amp;quot;:2120781,\&amp;quot;cy\&amp;quot;:2115920},\&amp;quot;flipH\&amp;quot;:false,\&amp;quot;flipV\&amp;quot;:false,\&amp;quot;rot\&amp;quot;:0}},\&amp;quot;mediaType\&amp;quot;:\&amp;quot;images\&amp;quot;}}}],\&amp;quot;rels\&amp;quot;:[{\&amp;quot;relationship\&amp;quot;:{\&amp;quot;Id\&amp;quot;:\&amp;quot;asset-0e62f5bd-486a-4b68-9b52-132b3ebd0fd7\&amp;quot;,\&amp;quot;Type\&amp;quot;:\&amp;quot;asset\&amp;quot;,\&amp;quot;Target\&amp;quot;:\&amp;quot;https://designerapp.officeapps.live.com/designerapp/Media.ashx/?id=23c725e6-f0c8-44c9-8964-1bd67836fe86.png&amp;amp;fileToken=bf58b787-5efb-4b8c-86f9-ae1aa244771b&amp;amp;dcHint=IndiaCentral\&amp;quot;}}]}&amp;quot;,&amp;quot;clipboardFormat&amp;quot;:&amp;quot;application/vnd.ms-designer+json&amp;quot;}&quot;&gt;&lt;/a&gt;&lt;a data-designer-clipboard=&quot;{&amp;quot;clipboardData&amp;quot;:&amp;quot;{\&amp;quot;elements\&amp;quot;:[{\&amp;quot;id\&amp;quot;:\&amp;quot;0978f192-a0c9-4299-9289-df8177acde36\&amp;quot;,\&amp;quot;type\&amp;quot;:\&amp;quot;Picture\&amp;quot;,\&amp;quot;choice\&amp;quot;:{\&amp;quot;pic\&amp;quot;:{\&amp;quot;nvPicPr\&amp;quot;:{\&amp;quot;cNvPr\&amp;quot;:{\&amp;quot;id\&amp;quot;:2,\&amp;quot;name\&amp;quot;:\&amp;quot;0978f192-a0c9-4299-9289-df8177acde36\&amp;quot;},\&amp;quot;cNvPicPr\&amp;quot;:{},\&amp;quot;nvPr\&amp;quot;:{}},\&amp;quot;blipFill\&amp;quot;:{\&amp;quot;FillMode\&amp;quot;:{\&amp;quot;stretch\&amp;quot;:{}},\&amp;quot;blip\&amp;quot;:{\&amp;quot;r_embed\&amp;quot;:\&amp;quot;asset-0e62f5bd-486a-4b68-9b52-132b3ebd0fd7\&amp;quot;},\&amp;quot;srcRect\&amp;quot;:{\&amp;quot;l\&amp;quot;:6399.970611635275,\&amp;quot;t\&amp;quot;:49036.3952036291,\&amp;quot;r\&amp;quot;:79684.14130728044,\&amp;quot;b\&amp;quot;:26280.954923438938}},\&amp;quot;spPr\&amp;quot;:{\&amp;quot;Geometry\&amp;quot;:{\&amp;quot;prstGeom\&amp;quot;:{\&amp;quot;prst\&amp;quot;:\&amp;quot;rect\&amp;quot;}},\&amp;quot;xfrm\&amp;quot;:{\&amp;quot;off\&amp;quot;:{\&amp;quot;x\&amp;quot;:7157187,\&amp;quot;y\&amp;quot;:2005661},\&amp;quot;ext\&amp;quot;:{\&amp;quot;cx\&amp;quot;:2120781,\&amp;quot;cy\&amp;quot;:2115920},\&amp;quot;flipH\&amp;quot;:false,\&amp;quot;flipV\&amp;quot;:false,\&amp;quot;rot\&amp;quot;:0}},\&amp;quot;mediaType\&amp;quot;:\&amp;quot;images\&amp;quot;}}}],\&amp;quot;rels\&amp;quot;:[{\&amp;quot;relationship\&amp;quot;:{\&amp;quot;Id\&amp;quot;:\&amp;quot;asset-0e62f5bd-486a-4b68-9b52-132b3ebd0fd7\&amp;quot;,\&amp;quot;Type\&amp;quot;:\&amp;quot;asset\&amp;quot;,\&amp;quot;Target\&amp;quot;:\&amp;quot;https://designerapp.officeapps.live.com/designerapp/Media.ashx/?id=23c725e6-f0c8-44c9-8964-1bd67836fe86.png&amp;amp;fileToken=bf58b787-5efb-4b8c-86f9-ae1aa244771b&amp;amp;dcHint=IndiaCentral\&amp;quot;}}]}&amp;quot;,&amp;quot;clipboardFormat&amp;quot;:&amp;quot;application/vnd.ms-designer+json&amp;quot;}&quot;&gt;&lt;/a&gt;&lt;a data-designer-clipboard=&quot;{&amp;quot;clipboardData&amp;quot;:&amp;quot;{\&amp;quot;elements\&amp;quot;:[{\&amp;quot;id\&amp;quot;:\&amp;quot;0978f192-a0c9-4299-9289-df8177acde36\&amp;quot;,\&amp;quot;type\&amp;quot;:\&amp;quot;Picture\&amp;quot;,\&amp;quot;choice\&amp;quot;:{\&amp;quot;pic\&amp;quot;:{\&amp;quot;nvPicPr\&amp;quot;:{\&amp;quot;cNvPr\&amp;quot;:{\&amp;quot;id\&amp;quot;:2,\&amp;quot;name\&amp;quot;:\&amp;quot;0978f192-a0c9-4299-9289-df8177acde36\&amp;quot;},\&amp;quot;cNvPicPr\&amp;quot;:{},\&amp;quot;nvPr\&amp;quot;:{}},\&amp;quot;blipFill\&amp;quot;:{\&amp;quot;FillMode\&amp;quot;:{\&amp;quot;stretch\&amp;quot;:{}},\&amp;quot;blip\&amp;quot;:{\&amp;quot;r_embed\&amp;quot;:\&amp;quot;asset-0e62f5bd-486a-4b68-9b52-132b3ebd0fd7\&amp;quot;},\&amp;quot;srcRect\&amp;quot;:{\&amp;quot;l\&amp;quot;:6399.970611635275,\&amp;quot;t\&amp;quot;:49036.3952036291,\&amp;quot;r\&amp;quot;:79684.14130728044,\&amp;quot;b\&amp;quot;:26280.954923438938}},\&amp;quot;spPr\&amp;quot;:{\&amp;quot;Geometry\&amp;quot;:{\&amp;quot;prstGeom\&amp;quot;:{\&amp;quot;prst\&amp;quot;:\&amp;quot;rect\&amp;quot;}},\&amp;quot;xfrm\&amp;quot;:{\&amp;quot;off\&amp;quot;:{\&amp;quot;x\&amp;quot;:7157187,\&amp;quot;y\&amp;quot;:2005661},\&amp;quot;ext\&amp;quot;:{\&amp;quot;cx\&amp;quot;:2120781,\&amp;quot;cy\&amp;quot;:2115920},\&amp;quot;flipH\&amp;quot;:false,\&amp;quot;flipV\&amp;quot;:false,\&amp;quot;rot\&amp;quot;:0}},\&amp;quot;mediaType\&amp;quot;:\&amp;quot;images\&amp;quot;}}}],\&amp;quot;rels\&amp;quot;:[{\&amp;quot;relationship\&amp;quot;:{\&amp;quot;Id\&amp;quot;:\&amp;quot;asset-0e62f5bd-486a-4b68-9b52-132b3ebd0fd7\&amp;quot;,\&amp;quot;Type\&amp;quot;:\&amp;quot;asset\&amp;quot;,\&amp;quot;Target\&amp;quot;:\&amp;quot;https://designerapp.officeapps.live.com/designerapp/Media.ashx/?id=23c725e6-f0c8-44c9-8964-1bd67836fe86.png&amp;amp;fileToken=bf58b787-5efb-4b8c-86f9-ae1aa244771b&amp;amp;dcHint=IndiaCentral\&amp;quot;}}]}&amp;quot;,&amp;quot;clipboardFormat&amp;quot;:&amp;quot;application/vnd.ms-designer+json&amp;quot;}&quot;&gt;&lt;/a&gt;&lt;a data-designer-clipboard=&quot;{&amp;quot;clipboardData&amp;quot;:&amp;quot;{\&amp;quot;elements\&amp;quot;:[{\&amp;quot;id\&amp;quot;:\&amp;quot;0978f192-a0c9-4299-9289-df8177acde36\&amp;quot;,\&amp;quot;type\&amp;quot;:\&amp;quot;Picture\&amp;quot;,\&amp;quot;choice\&amp;quot;:{\&amp;quot;pic\&amp;quot;:{\&amp;quot;nvPicPr\&amp;quot;:{\&amp;quot;cNvPr\&amp;quot;:{\&amp;quot;id\&amp;quot;:2,\&amp;quot;name\&amp;quot;:\&amp;quot;0978f192-a0c9-4299-9289-df8177acde36\&amp;quot;},\&amp;quot;cNvPicPr\&amp;quot;:{},\&amp;quot;nvPr\&amp;quot;:{}},\&amp;quot;blipFill\&amp;quot;:{\&amp;quot;FillMode\&amp;quot;:{\&amp;quot;stretch\&amp;quot;:{}},\&amp;quot;blip\&amp;quot;:{\&amp;quot;r_embed\&amp;quot;:\&amp;quot;asset-0e62f5bd-486a-4b68-9b52-132b3ebd0fd7\&amp;quot;},\&amp;quot;srcRect\&amp;quot;:{\&amp;quot;l\&amp;quot;:6399.970611635275,\&amp;quot;t\&amp;quot;:49036.3952036291,\&amp;quot;r\&amp;quot;:79684.14130728044,\&amp;quot;b\&amp;quot;:26280.954923438938}},\&amp;quot;spPr\&amp;quot;:{\&amp;quot;Geometry\&amp;quot;:{\&amp;quot;prstGeom\&amp;quot;:{\&amp;quot;prst\&amp;quot;:\&amp;quot;rect\&amp;quot;}},\&amp;quot;xfrm\&amp;quot;:{\&amp;quot;off\&amp;quot;:{\&amp;quot;x\&amp;quot;:7157187,\&amp;quot;y\&amp;quot;:2005661},\&amp;quot;ext\&amp;quot;:{\&amp;quot;cx\&amp;quot;:2120781,\&amp;quot;cy\&amp;quot;:2115920},\&amp;quot;flipH\&amp;quot;:false,\&amp;quot;flipV\&amp;quot;:false,\&amp;quot;rot\&amp;quot;:0}},\&amp;quot;mediaType\&amp;quot;:\&amp;quot;images\&amp;quot;}}}],\&amp;quot;rels\&amp;quot;:[{\&amp;quot;relationship\&amp;quot;:{\&amp;quot;Id\&amp;quot;:\&amp;quot;asset-0e62f5bd-486a-4b68-9b52-132b3ebd0fd7\&amp;quot;,\&amp;quot;Type\&amp;quot;:\&amp;quot;asset\&amp;quot;,\&amp;quot;Target\&amp;quot;:\&amp;quot;https://designerapp.officeapps.live.com/designerapp/Media.ashx/?id=23c725e6-f0c8-44c9-8964-1bd67836fe86.png&amp;amp;fileToken=bf58b787-5efb-4b8c-86f9-ae1aa244771b&amp;amp;dcHint=IndiaCentral\&amp;quot;}}]}&amp;quot;,&amp;quot;clipboardFormat&amp;quot;:&amp;quot;application/vnd.ms-designer+json&amp;quot;}&quot;&gt;&lt;/a&gt;&lt;a data-designer-clipboard=&quot;{&amp;quot;clipboardData&amp;quot;:&amp;quot;{\&amp;quot;elements\&amp;quot;:[{\&amp;quot;id\&amp;quot;:\&amp;quot;0978f192-a0c9-4299-9289-df8177acde36\&amp;quot;,\&amp;quot;type\&amp;quot;:\&amp;quot;Picture\&amp;quot;,\&amp;quot;choice\&amp;quot;:{\&amp;quot;pic\&amp;quot;:{\&amp;quot;nvPicPr\&amp;quot;:{\&amp;quot;cNvPr\&amp;quot;:{\&amp;quot;id\&amp;quot;:2,\&amp;quot;name\&amp;quot;:\&amp;quot;0978f192-a0c9-4299-9289-df8177acde36\&amp;quot;},\&amp;quot;cNvPicPr\&amp;quot;:{},\&amp;quot;nvPr\&amp;quot;:{}},\&amp;quot;blipFill\&amp;quot;:{\&amp;quot;FillMode\&amp;quot;:{\&amp;quot;stretch\&amp;quot;:{}},\&amp;quot;blip\&amp;quot;:{\&amp;quot;r_embed\&amp;quot;:\&amp;quot;asset-0e62f5bd-486a-4b68-9b52-132b3ebd0fd7\&amp;quot;},\&amp;quot;srcRect\&amp;quot;:{\&amp;quot;l\&amp;quot;:6399.970611635275,\&amp;quot;t\&amp;quot;:49036.3952036291,\&amp;quot;r\&amp;quot;:79684.14130728044,\&amp;quot;b\&amp;quot;:26280.954923438938}},\&amp;quot;spPr\&amp;quot;:{\&amp;quot;Geometry\&amp;quot;:{\&amp;quot;prstGeom\&amp;quot;:{\&amp;quot;prst\&amp;quot;:\&amp;quot;rect\&amp;quot;}},\&amp;quot;xfrm\&amp;quot;:{\&amp;quot;off\&amp;quot;:{\&amp;quot;x\&amp;quot;:7157187,\&amp;quot;y\&amp;quot;:2005661},\&amp;quot;ext\&amp;quot;:{\&amp;quot;cx\&amp;quot;:2120781,\&amp;quot;cy\&amp;quot;:2115920},\&amp;quot;flipH\&amp;quot;:false,\&amp;quot;flipV\&amp;quot;:false,\&amp;quot;rot\&amp;quot;:0}},\&amp;quot;mediaType\&amp;quot;:\&amp;quot;images\&amp;quot;}}}],\&amp;quot;rels\&amp;quot;:[{\&amp;quot;relationship\&amp;quot;:{\&amp;quot;Id\&amp;quot;:\&amp;quot;asset-0e62f5bd-486a-4b68-9b52-132b3ebd0fd7\&amp;quot;,\&amp;quot;Type\&amp;quot;:\&amp;quot;asset\&amp;quot;,\&amp;quot;Target\&amp;quot;:\&amp;quot;https://designerapp.officeapps.live.com/designerapp/Media.ashx/?id=23c725e6-f0c8-44c9-8964-1bd67836fe86.png&amp;amp;fileToken=bf58b787-5efb-4b8c-86f9-ae1aa244771b&amp;amp;dcHint=IndiaCentral\&amp;quot;}}]}&amp;quot;,&amp;quot;clipboardFormat&amp;quot;:&amp;quot;application/vnd.ms-designer+json&amp;quot;}&quot;&gt;&lt;/a&gt;&lt;a data-designer-clipboard=&quot;{&amp;quot;clipboardData&amp;quot;:&amp;quot;{\&amp;quot;elements\&amp;quot;:[{\&amp;quot;id\&amp;quot;:\&amp;quot;0978f192-a0c9-4299-9289-df8177acde36\&amp;quot;,\&amp;quot;type\&amp;quot;:\&amp;quot;Picture\&amp;quot;,\&amp;quot;choice\&amp;quot;:{\&amp;quot;pic\&amp;quot;:{\&amp;quot;nvPicPr\&amp;quot;:{\&amp;quot;cNvPr\&amp;quot;:{\&amp;quot;id\&amp;quot;:2,\&amp;quot;name\&amp;quot;:\&amp;quot;0978f192-a0c9-4299-9289-df8177acde36\&amp;quot;},\&amp;quot;cNvPicPr\&amp;quot;:{},\&amp;quot;nvPr\&amp;quot;:{}},\&amp;quot;blipFill\&amp;quot;:{\&amp;quot;FillMode\&amp;quot;:{\&amp;quot;stretch\&amp;quot;:{}},\&amp;quot;blip\&amp;quot;:{\&amp;quot;r_embed\&amp;quot;:\&amp;quot;asset-0e62f5bd-486a-4b68-9b52-132b3ebd0fd7\&amp;quot;},\&amp;quot;srcRect\&amp;quot;:{\&amp;quot;l\&amp;quot;:6399.970611635275,\&amp;quot;t\&amp;quot;:49036.3952036291,\&amp;quot;r\&amp;quot;:79684.14130728044,\&amp;quot;b\&amp;quot;:26280.954923438938}},\&amp;quot;spPr\&amp;quot;:{\&amp;quot;Geometry\&amp;quot;:{\&amp;quot;prstGeom\&amp;quot;:{\&amp;quot;prst\&amp;quot;:\&amp;quot;rect\&amp;quot;}},\&amp;quot;xfrm\&amp;quot;:{\&amp;quot;off\&amp;quot;:{\&amp;quot;x\&amp;quot;:7157187,\&amp;quot;y\&amp;quot;:2005661},\&amp;quot;ext\&amp;quot;:{\&amp;quot;cx\&amp;quot;:2120781,\&amp;quot;cy\&amp;quot;:2115920},\&amp;quot;flipH\&amp;quot;:false,\&amp;quot;flipV\&amp;quot;:false,\&amp;quot;rot\&amp;quot;:0}},\&amp;quot;mediaType\&amp;quot;:\&amp;quot;images\&amp;quot;}}}],\&amp;quot;rels\&amp;quot;:[{\&amp;quot;relationship\&amp;quot;:{\&amp;quot;Id\&amp;quot;:\&amp;quot;asset-0e62f5bd-486a-4b68-9b52-132b3ebd0fd7\&amp;quot;,\&amp;quot;Type\&amp;quot;:\&amp;quot;asset\&amp;quot;,\&amp;quot;Target\&amp;quot;:\&amp;quot;https://designerapp.officeapps.live.com/designerapp/Media.ashx/?id=23c725e6-f0c8-44c9-8964-1bd67836fe86.png&amp;amp;fileToken=bf58b787-5efb-4b8c-86f9-ae1aa244771b&amp;amp;dcHint=IndiaCentral\&amp;quot;}}]}&amp;quot;,&amp;quot;clipboardFormat&amp;quot;:&amp;quot;application/vnd.ms-designer+json&amp;quot;}&quot;&gt;&lt;/a&gt;&lt;a data-designer-clipboard=&quot;{&amp;quot;clipboardData&amp;quot;:&amp;quot;{\&amp;quot;elements\&amp;quot;:[{\&amp;quot;id\&amp;quot;:\&amp;quot;0978f192-a0c9-4299-9289-df8177acde36\&amp;quot;,\&amp;quot;type\&amp;quot;:\&amp;quot;Picture\&amp;quot;,\&amp;quot;choice\&amp;quot;:{\&amp;quot;pic\&amp;quot;:{\&amp;quot;nvPicPr\&amp;quot;:{\&amp;quot;cNvPr\&amp;quot;:{\&amp;quot;id\&amp;quot;:2,\&amp;quot;name\&amp;quot;:\&amp;quot;0978f192-a0c9-4299-9289-df8177acde36\&amp;quot;},\&amp;quot;cNvPicPr\&amp;quot;:{},\&amp;quot;nvPr\&amp;quot;:{}},\&amp;quot;blipFill\&amp;quot;:{\&amp;quot;FillMode\&amp;quot;:{\&amp;quot;stretch\&amp;quot;:{}},\&amp;quot;blip\&amp;quot;:{\&amp;quot;r_embed\&amp;quot;:\&amp;quot;asset-0e62f5bd-486a-4b68-9b52-132b3ebd0fd7\&amp;quot;},\&amp;quot;srcRect\&amp;quot;:{\&amp;quot;l\&amp;quot;:6399.970611635275,\&amp;quot;t\&amp;quot;:49036.3952036291,\&amp;quot;r\&amp;quot;:79684.14130728044,\&amp;quot;b\&amp;quot;:26280.954923438938}},\&amp;quot;spPr\&amp;quot;:{\&amp;quot;Geometry\&amp;quot;:{\&amp;quot;prstGeom\&amp;quot;:{\&amp;quot;prst\&amp;quot;:\&amp;quot;rect\&amp;quot;}},\&amp;quot;xfrm\&amp;quot;:{\&amp;quot;off\&amp;quot;:{\&amp;quot;x\&amp;quot;:7157187,\&amp;quot;y\&amp;quot;:2005661},\&amp;quot;ext\&amp;quot;:{\&amp;quot;cx\&amp;quot;:2120781,\&amp;quot;cy\&amp;quot;:2115920},\&amp;quot;flipH\&amp;quot;:false,\&amp;quot;flipV\&amp;quot;:false,\&amp;quot;rot\&amp;quot;:0}},\&amp;quot;mediaType\&amp;quot;:\&amp;quot;images\&amp;quot;}}}],\&amp;quot;rels\&amp;quot;:[{\&amp;quot;relationship\&amp;quot;:{\&amp;quot;Id\&amp;quot;:\&amp;quot;asset-0e62f5bd-486a-4b68-9b52-132b3ebd0fd7\&amp;quot;,\&amp;quot;Type\&amp;quot;:\&amp;quot;asset\&amp;quot;,\&amp;quot;Target\&amp;quot;:\&amp;quot;https://designerapp.officeapps.live.com/designerapp/Media.ashx/?id=23c725e6-f0c8-44c9-8964-1bd67836fe86.png&amp;amp;fileToken=bf58b787-5efb-4b8c-86f9-ae1aa244771b&amp;amp;dcHint=IndiaCentral\&amp;quot;}}]}&amp;quot;,&amp;quot;clipboardFormat&amp;quot;:&amp;quot;application/vnd.ms-designer+json&amp;quot;}&quot;&gt;&lt;/a&gt;&lt;a data-designer-clipboard=&quot;{&amp;quot;clipboardData&amp;quot;:&amp;quot;{\&amp;quot;elements\&amp;quot;:[{\&amp;quot;id\&amp;quot;:\&amp;quot;0978f192-a0c9-4299-9289-df8177acde36\&amp;quot;,\&amp;quot;type\&amp;quot;:\&amp;quot;Picture\&amp;quot;,\&amp;quot;choice\&amp;quot;:{\&amp;quot;pic\&amp;quot;:{\&amp;quot;nvPicPr\&amp;quot;:{\&amp;quot;cNvPr\&amp;quot;:{\&amp;quot;id\&amp;quot;:2,\&amp;quot;name\&amp;quot;:\&amp;quot;0978f192-a0c9-4299-9289-df8177acde36\&amp;quot;},\&amp;quot;cNvPicPr\&amp;quot;:{},\&amp;quot;nvPr\&amp;quot;:{}},\&amp;quot;blipFill\&amp;quot;:{\&amp;quot;FillMode\&amp;quot;:{\&amp;quot;stretch\&amp;quot;:{}},\&amp;quot;blip\&amp;quot;:{\&amp;quot;r_embed\&amp;quot;:\&amp;quot;asset-0e62f5bd-486a-4b68-9b52-132b3ebd0fd7\&amp;quot;},\&amp;quot;srcRect\&amp;quot;:{\&amp;quot;l\&amp;quot;:6399.970611635275,\&amp;quot;t\&amp;quot;:49036.3952036291,\&amp;quot;r\&amp;quot;:79684.14130728044,\&amp;quot;b\&amp;quot;:26280.954923438938}},\&amp;quot;spPr\&amp;quot;:{\&amp;quot;Geometry\&amp;quot;:{\&amp;quot;prstGeom\&amp;quot;:{\&amp;quot;prst\&amp;quot;:\&amp;quot;rect\&amp;quot;}},\&amp;quot;xfrm\&amp;quot;:{\&amp;quot;off\&amp;quot;:{\&amp;quot;x\&amp;quot;:7157187,\&amp;quot;y\&amp;quot;:2005661},\&amp;quot;ext\&amp;quot;:{\&amp;quot;cx\&amp;quot;:2120781,\&amp;quot;cy\&amp;quot;:2115920},\&amp;quot;flipH\&amp;quot;:false,\&amp;quot;flipV\&amp;quot;:false,\&amp;quot;rot\&amp;quot;:0}},\&amp;quot;mediaType\&amp;quot;:\&amp;quot;images\&amp;quot;}}}],\&amp;quot;rels\&amp;quot;:[{\&amp;quot;relationship\&amp;quot;:{\&amp;quot;Id\&amp;quot;:\&amp;quot;asset-0e62f5bd-486a-4b68-9b52-132b3ebd0fd7\&amp;quot;,\&amp;quot;Type\&amp;quot;:\&amp;quot;asset\&amp;quot;,\&amp;quot;Target\&amp;quot;:\&amp;quot;https://designerapp.officeapps.live.com/designerapp/Media.ashx/?id=23c725e6-f0c8-44c9-8964-1bd67836fe86.png&amp;amp;fileToken=bf58b787-5efb-4b8c-86f9-ae1aa244771b&amp;amp;dcHint=IndiaCentral\&amp;quot;}}]}&amp;quot;,&amp;quot;clipboardFormat&amp;quot;:&amp;quot;application/vnd.ms-designer+json&amp;quot;}&quot;&gt;&lt;/a&gt;&lt;a data-designer-clipboard=&quot;{&amp;quot;clipboardData&amp;quot;:&amp;quot;{\&amp;quot;elements\&amp;quot;:[{\&amp;quot;id\&amp;quot;:\&amp;quot;0978f192-a0c9-4299-9289-df8177acde36\&amp;quot;,\&amp;quot;type\&amp;quot;:\&amp;quot;Picture\&amp;quot;,\&amp;quot;choice\&amp;quot;:{\&amp;quot;pic\&amp;quot;:{\&amp;quot;nvPicPr\&amp;quot;:{\&amp;quot;cNvPr\&amp;quot;:{\&amp;quot;id\&amp;quot;:2,\&amp;quot;name\&amp;quot;:\&amp;quot;0978f192-a0c9-4299-9289-df8177acde36\&amp;quot;},\&amp;quot;cNvPicPr\&amp;quot;:{},\&amp;quot;nvPr\&amp;quot;:{}},\&amp;quot;blipFill\&amp;quot;:{\&amp;quot;FillMode\&amp;quot;:{\&amp;quot;stretch\&amp;quot;:{}},\&amp;quot;blip\&amp;quot;:{\&amp;quot;r_embed\&amp;quot;:\&amp;quot;asset-0e62f5bd-486a-4b68-9b52-132b3ebd0fd7\&amp;quot;},\&amp;quot;srcRect\&amp;quot;:{\&amp;quot;l\&amp;quot;:6399.970611635275,\&amp;quot;t\&amp;quot;:49036.3952036291,\&amp;quot;r\&amp;quot;:79684.14130728044,\&amp;quot;b\&amp;quot;:26280.954923438938}},\&amp;quot;spPr\&amp;quot;:{\&amp;quot;Geometry\&amp;quot;:{\&amp;quot;prstGeom\&amp;quot;:{\&amp;quot;prst\&amp;quot;:\&amp;quot;rect\&amp;quot;}},\&amp;quot;xfrm\&amp;quot;:{\&amp;quot;off\&amp;quot;:{\&amp;quot;x\&amp;quot;:7157187,\&amp;quot;y\&amp;quot;:2005661},\&amp;quot;ext\&amp;quot;:{\&amp;quot;cx\&amp;quot;:2120781,\&amp;quot;cy\&amp;quot;:2115920},\&amp;quot;flipH\&amp;quot;:false,\&amp;quot;flipV\&amp;quot;:false,\&amp;quot;rot\&amp;quot;:0}},\&amp;quot;mediaType\&amp;quot;:\&amp;quot;images\&amp;quot;}}}],\&amp;quot;rels\&amp;quot;:[{\&amp;quot;relationship\&amp;quot;:{\&amp;quot;Id\&amp;quot;:\&amp;quot;asset-0e62f5bd-486a-4b68-9b52-132b3ebd0fd7\&amp;quot;,\&amp;quot;Type\&amp;quot;:\&amp;quot;asset\&amp;quot;,\&amp;quot;Target\&amp;quot;:\&amp;quot;https://designerapp.officeapps.live.com/designerapp/Media.ashx/?id=23c725e6-f0c8-44c9-8964-1bd67836fe86.png&amp;amp;fileToken=bf58b787-5efb-4b8c-86f9-ae1aa244771b&amp;amp;dcHint=IndiaCentral\&amp;quot;}}]}&amp;quot;,&amp;quot;clipboardFormat&amp;quot;:&amp;quot;application/vnd.ms-designer+json&amp;quot;}&quot;&gt;&lt;/a&gt;&lt;a data-designer-clipboard=&quot;{&amp;quot;clipboardData&amp;quot;:&amp;quot;{\&amp;quot;elements\&amp;quot;:[{\&amp;quot;id\&amp;quot;:\&amp;quot;0978f192-a0c9-4299-9289-df8177acde36\&amp;quot;,\&amp;quot;type\&amp;quot;:\&amp;quot;Picture\&amp;quot;,\&amp;quot;choice\&amp;quot;:{\&amp;quot;pic\&amp;quot;:{\&amp;quot;nvPicPr\&amp;quot;:{\&amp;quot;cNvPr\&amp;quot;:{\&amp;quot;id\&amp;quot;:2,\&amp;quot;name\&amp;quot;:\&amp;quot;0978f192-a0c9-4299-9289-df8177acde36\&amp;quot;},\&amp;quot;cNvPicPr\&amp;quot;:{},\&amp;quot;nvPr\&amp;quot;:{}},\&amp;quot;blipFill\&amp;quot;:{\&amp;quot;FillMode\&amp;quot;:{\&amp;quot;stretch\&amp;quot;:{}},\&amp;quot;blip\&amp;quot;:{\&amp;quot;r_embed\&amp;quot;:\&amp;quot;asset-0e62f5bd-486a-4b68-9b52-132b3ebd0fd7\&amp;quot;},\&amp;quot;srcRect\&amp;quot;:{\&amp;quot;l\&amp;quot;:6399.970611635275,\&amp;quot;t\&amp;quot;:49036.3952036291,\&amp;quot;r\&amp;quot;:79684.14130728044,\&amp;quot;b\&amp;quot;:26280.954923438938}},\&amp;quot;spPr\&amp;quot;:{\&amp;quot;Geometry\&amp;quot;:{\&amp;quot;prstGeom\&amp;quot;:{\&amp;quot;prst\&amp;quot;:\&amp;quot;rect\&amp;quot;}},\&amp;quot;xfrm\&amp;quot;:{\&amp;quot;off\&amp;quot;:{\&amp;quot;x\&amp;quot;:7157187,\&amp;quot;y\&amp;quot;:2005661},\&amp;quot;ext\&amp;quot;:{\&amp;quot;cx\&amp;quot;:2120781,\&amp;quot;cy\&amp;quot;:2115920},\&amp;quot;flipH\&amp;quot;:false,\&amp;quot;flipV\&amp;quot;:false,\&amp;quot;rot\&amp;quot;:0}},\&amp;quot;mediaType\&amp;quot;:\&amp;quot;images\&amp;quot;}}}],\&amp;quot;rels\&amp;quot;:[{\&amp;quot;relationship\&amp;quot;:{\&amp;quot;Id\&amp;quot;:\&amp;quot;asset-0e62f5bd-486a-4b68-9b52-132b3ebd0fd7\&amp;quot;,\&amp;quot;Type\&amp;quot;:\&amp;quot;asset\&amp;quot;,\&amp;quot;Target\&amp;quot;:\&amp;quot;https://designerapp.officeapps.live.com/designerapp/Media.ashx/?id=23c725e6-f0c8-44c9-8964-1bd67836fe86.png&amp;amp;fileToken=bf58b787-5efb-4b8c-86f9-ae1aa244771b&amp;amp;dcHint=IndiaCentral\&amp;quot;}}]}&amp;quot;,&amp;quot;clipboardFormat&amp;quot;:&amp;quot;application/vnd.ms-designer+json&amp;quot;}&quot;&gt;&lt;/a&gt;&lt;a data-designer-clipboard=&quot;{&amp;quot;clipboardData&amp;quot;:&amp;quot;{\&amp;quot;elements\&amp;quot;:[{\&amp;quot;id\&amp;quot;:\&amp;quot;0978f192-a0c9-4299-9289-df8177acde36\&amp;quot;,\&amp;quot;type\&amp;quot;:\&amp;quot;Picture\&amp;quot;,\&amp;quot;choice\&amp;quot;:{\&amp;quot;pic\&amp;quot;:{\&amp;quot;nvPicPr\&amp;quot;:{\&amp;quot;cNvPr\&amp;quot;:{\&amp;quot;id\&amp;quot;:2,\&amp;quot;name\&amp;quot;:\&amp;quot;0978f192-a0c9-4299-9289-df8177acde36\&amp;quot;},\&amp;quot;cNvPicPr\&amp;quot;:{},\&amp;quot;nvPr\&amp;quot;:{}},\&amp;quot;blipFill\&amp;quot;:{\&amp;quot;FillMode\&amp;quot;:{\&amp;quot;stretch\&amp;quot;:{}},\&amp;quot;blip\&amp;quot;:{\&amp;quot;r_embed\&amp;quot;:\&amp;quot;asset-0e62f5bd-486a-4b68-9b52-132b3ebd0fd7\&amp;quot;},\&amp;quot;srcRect\&amp;quot;:{\&amp;quot;l\&amp;quot;:6399.970611635275,\&amp;quot;t\&amp;quot;:49036.3952036291,\&amp;quot;r\&amp;quot;:79684.14130728044,\&amp;quot;b\&amp;quot;:26280.954923438938}},\&amp;quot;spPr\&amp;quot;:{\&amp;quot;Geometry\&amp;quot;:{\&amp;quot;prstGeom\&amp;quot;:{\&amp;quot;prst\&amp;quot;:\&amp;quot;rect\&amp;quot;}},\&amp;quot;xfrm\&amp;quot;:{\&amp;quot;off\&amp;quot;:{\&amp;quot;x\&amp;quot;:7157187,\&amp;quot;y\&amp;quot;:2005661},\&amp;quot;ext\&amp;quot;:{\&amp;quot;cx\&amp;quot;:2120781,\&amp;quot;cy\&amp;quot;:2115920},\&amp;quot;flipH\&amp;quot;:false,\&amp;quot;flipV\&amp;quot;:false,\&amp;quot;rot\&amp;quot;:0}},\&amp;quot;mediaType\&amp;quot;:\&amp;quot;images\&amp;quot;}}}],\&amp;quot;rels\&amp;quot;:[{\&amp;quot;relationship\&amp;quot;:{\&amp;quot;Id\&amp;quot;:\&amp;quot;asset-0e62f5bd-486a-4b68-9b52-132b3ebd0fd7\&amp;quot;,\&amp;quot;Type\&amp;quot;:\&amp;quot;asset\&amp;quot;,\&amp;quot;Target\&amp;quot;:\&amp;quot;https://designerapp.officeapps.live.com/designerapp/Media.ashx/?id=23c725e6-f0c8-44c9-8964-1bd67836fe86.png&amp;amp;fileToken=bf58b787-5efb-4b8c-86f9-ae1aa244771b&amp;amp;dcHint=IndiaCentral\&amp;quot;}}]}&amp;quot;,&amp;quot;clipboardFormat&amp;quot;:&amp;quot;application/vnd.ms-designer+json&amp;quot;}&quot;&gt;&lt;/a&gt;&lt;a data-designer-clipboard=&quot;{&amp;quot;clipboardData&amp;quot;:&amp;quot;{\&amp;quot;elements\&amp;quot;:[{\&amp;quot;id\&amp;quot;:\&amp;quot;0978f192-a0c9-4299-9289-df8177acde36\&amp;quot;,\&amp;quot;type\&amp;quot;:\&amp;quot;Picture\&amp;quot;,\&amp;quot;choice\&amp;quot;:{\&amp;quot;pic\&amp;quot;:{\&amp;quot;nvPicPr\&amp;quot;:{\&amp;quot;cNvPr\&amp;quot;:{\&amp;quot;id\&amp;quot;:2,\&amp;quot;name\&amp;quot;:\&amp;quot;0978f192-a0c9-4299-9289-df8177acde36\&amp;quot;},\&amp;quot;cNvPicPr\&amp;quot;:{},\&amp;quot;nvPr\&amp;quot;:{}},\&amp;quot;blipFill\&amp;quot;:{\&amp;quot;FillMode\&amp;quot;:{\&amp;quot;stretch\&amp;quot;:{}},\&amp;quot;blip\&amp;quot;:{\&amp;quot;r_embed\&amp;quot;:\&amp;quot;asset-0e62f5bd-486a-4b68-9b52-132b3ebd0fd7\&amp;quot;},\&amp;quot;srcRect\&amp;quot;:{\&amp;quot;l\&amp;quot;:6399.970611635275,\&amp;quot;t\&amp;quot;:49036.3952036291,\&amp;quot;r\&amp;quot;:79684.14130728044,\&amp;quot;b\&amp;quot;:26280.954923438938}},\&amp;quot;spPr\&amp;quot;:{\&amp;quot;Geometry\&amp;quot;:{\&amp;quot;prstGeom\&amp;quot;:{\&amp;quot;prst\&amp;quot;:\&amp;quot;rect\&amp;quot;}},\&amp;quot;xfrm\&amp;quot;:{\&amp;quot;off\&amp;quot;:{\&amp;quot;x\&amp;quot;:7157187,\&amp;quot;y\&amp;quot;:2005661},\&amp;quot;ext\&amp;quot;:{\&amp;quot;cx\&amp;quot;:2120781,\&amp;quot;cy\&amp;quot;:2115920},\&amp;quot;flipH\&amp;quot;:false,\&amp;quot;flipV\&amp;quot;:false,\&amp;quot;rot\&amp;quot;:0}},\&amp;quot;mediaType\&amp;quot;:\&amp;quot;images\&amp;quot;}}}],\&amp;quot;rels\&amp;quot;:[{\&amp;quot;relationship\&amp;quot;:{\&amp;quot;Id\&amp;quot;:\&amp;quot;asset-0e62f5bd-486a-4b68-9b52-132b3ebd0fd7\&amp;quot;,\&amp;quot;Type\&amp;quot;:\&amp;quot;asset\&amp;quot;,\&amp;quot;Target\&amp;quot;:\&amp;quot;https://designerapp.officeapps.live.com/designerapp/Media.ashx/?id=23c725e6-f0c8-44c9-8964-1bd67836fe86.png&amp;amp;fileToken=bf58b787-5efb-4b8c-86f9-ae1aa244771b&amp;amp;dcHint=IndiaCentral\&amp;quot;}}]}&amp;quot;,&amp;quot;clipboardFormat&amp;quot;:&amp;quot;application/vnd.ms-designer+json&amp;quot;}&quot;&gt;&lt;/a&gt;&lt;a data-designer-clipboard=&quot;{&amp;quot;clipboardData&amp;quot;:&amp;quot;{\&amp;quot;elements\&amp;quot;:[{\&amp;quot;id\&amp;quot;:\&amp;quot;0978f192-a0c9-4299-9289-df8177acde36\&amp;quot;,\&amp;quot;type\&amp;quot;:\&amp;quot;Picture\&amp;quot;,\&amp;quot;choice\&amp;quot;:{\&amp;quot;pic\&amp;quot;:{\&amp;quot;nvPicPr\&amp;quot;:{\&amp;quot;cNvPr\&amp;quot;:{\&amp;quot;id\&amp;quot;:2,\&amp;quot;name\&amp;quot;:\&amp;quot;0978f192-a0c9-4299-9289-df8177acde36\&amp;quot;},\&amp;quot;cNvPicPr\&amp;quot;:{},\&amp;quot;nvPr\&amp;quot;:{}},\&amp;quot;blipFill\&amp;quot;:{\&amp;quot;FillMode\&amp;quot;:{\&amp;quot;stretch\&amp;quot;:{}},\&amp;quot;blip\&amp;quot;:{\&amp;quot;r_embed\&amp;quot;:\&amp;quot;asset-0e62f5bd-486a-4b68-9b52-132b3ebd0fd7\&amp;quot;},\&amp;quot;srcRect\&amp;quot;:{\&amp;quot;l\&amp;quot;:6399.970611635275,\&amp;quot;t\&amp;quot;:49036.3952036291,\&amp;quot;r\&amp;quot;:79684.14130728044,\&amp;quot;b\&amp;quot;:26280.954923438938}},\&amp;quot;spPr\&amp;quot;:{\&amp;quot;Geometry\&amp;quot;:{\&amp;quot;prstGeom\&amp;quot;:{\&amp;quot;prst\&amp;quot;:\&amp;quot;rect\&amp;quot;}},\&amp;quot;xfrm\&amp;quot;:{\&amp;quot;off\&amp;quot;:{\&amp;quot;x\&amp;quot;:7157187,\&amp;quot;y\&amp;quot;:2005661},\&amp;quot;ext\&amp;quot;:{\&amp;quot;cx\&amp;quot;:2120781,\&amp;quot;cy\&amp;quot;:2115920},\&amp;quot;flipH\&amp;quot;:false,\&amp;quot;flipV\&amp;quot;:false,\&amp;quot;rot\&amp;quot;:0}},\&amp;quot;mediaType\&amp;quot;:\&amp;quot;images\&amp;quot;}}}],\&amp;quot;rels\&amp;quot;:[{\&amp;quot;relationship\&amp;quot;:{\&amp;quot;Id\&amp;quot;:\&amp;quot;asset-0e62f5bd-486a-4b68-9b52-132b3ebd0fd7\&amp;quot;,\&amp;quot;Type\&amp;quot;:\&amp;quot;asset\&amp;quot;,\&amp;quot;Target\&amp;quot;:\&amp;quot;https://designerapp.officeapps.live.com/designerapp/Media.ashx/?id=23c725e6-f0c8-44c9-8964-1bd67836fe86.png&amp;amp;fileToken=bf58b787-5efb-4b8c-86f9-ae1aa244771b&amp;amp;dcHint=IndiaCentral\&amp;quot;}}]}&amp;quot;,&amp;quot;clipboardFormat&amp;quot;:&amp;quot;application/vnd.ms-designer+json&amp;quot;}&quot;&gt;&lt;/a&gt;&lt;a data-designer-clipboard=&quot;{&amp;quot;clipboardData&amp;quot;:&amp;quot;{\&amp;quot;elements\&amp;quot;:[{\&amp;quot;id\&amp;quot;:\&amp;quot;0978f192-a0c9-4299-9289-df8177acde36\&amp;quot;,\&amp;quot;type\&amp;quot;:\&amp;quot;Picture\&amp;quot;,\&amp;quot;choice\&amp;quot;:{\&amp;quot;pic\&amp;quot;:{\&amp;quot;nvPicPr\&amp;quot;:{\&amp;quot;cNvPr\&amp;quot;:{\&amp;quot;id\&amp;quot;:2,\&amp;quot;name\&amp;quot;:\&amp;quot;0978f192-a0c9-4299-9289-df8177acde36\&amp;quot;},\&amp;quot;cNvPicPr\&amp;quot;:{},\&amp;quot;nvPr\&amp;quot;:{}},\&amp;quot;blipFill\&amp;quot;:{\&amp;quot;FillMode\&amp;quot;:{\&amp;quot;stretch\&amp;quot;:{}},\&amp;quot;blip\&amp;quot;:{\&amp;quot;r_embed\&amp;quot;:\&amp;quot;asset-0e62f5bd-486a-4b68-9b52-132b3ebd0fd7\&amp;quot;},\&amp;quot;srcRect\&amp;quot;:{\&amp;quot;l\&amp;quot;:6399.970611635275,\&amp;quot;t\&amp;quot;:49036.3952036291,\&amp;quot;r\&amp;quot;:79684.14130728044,\&amp;quot;b\&amp;quot;:26280.954923438938}},\&amp;quot;spPr\&amp;quot;:{\&amp;quot;Geometry\&amp;quot;:{\&amp;quot;prstGeom\&amp;quot;:{\&amp;quot;prst\&amp;quot;:\&amp;quot;rect\&amp;quot;}},\&amp;quot;xfrm\&amp;quot;:{\&amp;quot;off\&amp;quot;:{\&amp;quot;x\&amp;quot;:7157187,\&amp;quot;y\&amp;quot;:2005661},\&amp;quot;ext\&amp;quot;:{\&amp;quot;cx\&amp;quot;:2120781,\&amp;quot;cy\&amp;quot;:2115920},\&amp;quot;flipH\&amp;quot;:false,\&amp;quot;flipV\&amp;quot;:false,\&amp;quot;rot\&amp;quot;:0}},\&amp;quot;mediaType\&amp;quot;:\&amp;quot;images\&amp;quot;}}}],\&amp;quot;rels\&amp;quot;:[{\&amp;quot;relationship\&amp;quot;:{\&amp;quot;Id\&amp;quot;:\&amp;quot;asset-0e62f5bd-486a-4b68-9b52-132b3ebd0fd7\&amp;quot;,\&amp;quot;Type\&amp;quot;:\&amp;quot;asset\&amp;quot;,\&amp;quot;Target\&amp;quot;:\&amp;quot;https://designerapp.officeapps.live.com/designerapp/Media.ashx/?id=23c725e6-f0c8-44c9-8964-1bd67836fe86.png&amp;amp;fileToken=bf58b787-5efb-4b8c-86f9-ae1aa244771b&amp;amp;dcHint=IndiaCentral\&amp;quot;}}]}&amp;quot;,&amp;quot;clipboardFormat&amp;quot;:&amp;quot;application/vnd.ms-designer+json&amp;quot;}&quot;&gt;&lt;/a&gt;&lt;a data-designer-clipboard=&quot;{&amp;quot;clipboardData&amp;quot;:&amp;quot;{\&amp;quot;elements\&amp;quot;:[{\&amp;quot;id\&amp;quot;:\&amp;quot;0978f192-a0c9-4299-9289-df8177acde36\&amp;quot;,\&amp;quot;type\&amp;quot;:\&amp;quot;Picture\&amp;quot;,\&amp;quot;choice\&amp;quot;:{\&amp;quot;pic\&amp;quot;:{\&amp;quot;nvPicPr\&amp;quot;:{\&amp;quot;cNvPr\&amp;quot;:{\&amp;quot;id\&amp;quot;:2,\&amp;quot;name\&amp;quot;:\&amp;quot;0978f192-a0c9-4299-9289-df8177acde36\&amp;quot;},\&amp;quot;cNvPicPr\&amp;quot;:{},\&amp;quot;nvPr\&amp;quot;:{}},\&amp;quot;blipFill\&amp;quot;:{\&amp;quot;FillMode\&amp;quot;:{\&amp;quot;stretch\&amp;quot;:{}},\&amp;quot;blip\&amp;quot;:{\&amp;quot;r_embed\&amp;quot;:\&amp;quot;asset-0e62f5bd-486a-4b68-9b52-132b3ebd0fd7\&amp;quot;},\&amp;quot;srcRect\&amp;quot;:{\&amp;quot;l\&amp;quot;:6399.970611635275,\&amp;quot;t\&amp;quot;:49036.3952036291,\&amp;quot;r\&amp;quot;:79684.14130728044,\&amp;quot;b\&amp;quot;:26280.954923438938}},\&amp;quot;spPr\&amp;quot;:{\&amp;quot;Geometry\&amp;quot;:{\&amp;quot;prstGeom\&amp;quot;:{\&amp;quot;prst\&amp;quot;:\&amp;quot;rect\&amp;quot;}},\&amp;quot;xfrm\&amp;quot;:{\&amp;quot;off\&amp;quot;:{\&amp;quot;x\&amp;quot;:7157187,\&amp;quot;y\&amp;quot;:2005661},\&amp;quot;ext\&amp;quot;:{\&amp;quot;cx\&amp;quot;:2120781,\&amp;quot;cy\&amp;quot;:2115920},\&amp;quot;flipH\&amp;quot;:false,\&amp;quot;flipV\&amp;quot;:false,\&amp;quot;rot\&amp;quot;:0}},\&amp;quot;mediaType\&amp;quot;:\&amp;quot;images\&amp;quot;}}}],\&amp;quot;rels\&amp;quot;:[{\&amp;quot;relationship\&amp;quot;:{\&amp;quot;Id\&amp;quot;:\&amp;quot;asset-0e62f5bd-486a-4b68-9b52-132b3ebd0fd7\&amp;quot;,\&amp;quot;Type\&amp;quot;:\&amp;quot;asset\&amp;quot;,\&amp;quot;Target\&amp;quot;:\&amp;quot;https://designerapp.officeapps.live.com/designerapp/Media.ashx/?id=23c725e6-f0c8-44c9-8964-1bd67836fe86.png&amp;amp;fileToken=bf58b787-5efb-4b8c-86f9-ae1aa244771b&amp;amp;dcHint=IndiaCentral\&amp;quot;}}]}&amp;quot;,&amp;quot;clipboardFormat&amp;quot;:&amp;quot;application/vnd.ms-designer+json&amp;quot;}&quot;&gt;&lt;/a&gt;&lt;a data-designer-clipboard=&quot;{&amp;quot;clipboardData&amp;quot;:&amp;quot;{\&amp;quot;elements\&amp;quot;:[{\&amp;quot;id\&amp;quot;:\&amp;quot;0978f192-a0c9-4299-9289-df8177acde36\&amp;quot;,\&amp;quot;type\&amp;quot;:\&amp;quot;Picture\&amp;quot;,\&amp;quot;choice\&amp;quot;:{\&amp;quot;pic\&amp;quot;:{\&amp;quot;nvPicPr\&amp;quot;:{\&amp;quot;cNvPr\&amp;quot;:{\&amp;quot;id\&amp;quot;:2,\&amp;quot;name\&amp;quot;:\&amp;quot;0978f192-a0c9-4299-9289-df8177acde36\&amp;quot;},\&amp;quot;cNvPicPr\&amp;quot;:{},\&amp;quot;nvPr\&amp;quot;:{}},\&amp;quot;blipFill\&amp;quot;:{\&amp;quot;FillMode\&amp;quot;:{\&amp;quot;stretch\&amp;quot;:{}},\&amp;quot;blip\&amp;quot;:{\&amp;quot;r_embed\&amp;quot;:\&amp;quot;asset-0e62f5bd-486a-4b68-9b52-132b3ebd0fd7\&amp;quot;},\&amp;quot;srcRect\&amp;quot;:{\&amp;quot;l\&amp;quot;:6399.970611635275,\&amp;quot;t\&amp;quot;:49036.3952036291,\&amp;quot;r\&amp;quot;:79684.14130728044,\&amp;quot;b\&amp;quot;:26280.954923438938}},\&amp;quot;spPr\&amp;quot;:{\&amp;quot;Geometry\&amp;quot;:{\&amp;quot;prstGeom\&amp;quot;:{\&amp;quot;prst\&amp;quot;:\&amp;quot;rect\&amp;quot;}},\&amp;quot;xfrm\&amp;quot;:{\&amp;quot;off\&amp;quot;:{\&amp;quot;x\&amp;quot;:7157187,\&amp;quot;y\&amp;quot;:2005661},\&amp;quot;ext\&amp;quot;:{\&amp;quot;cx\&amp;quot;:2120781,\&amp;quot;cy\&amp;quot;:2115920},\&amp;quot;flipH\&amp;quot;:false,\&amp;quot;flipV\&amp;quot;:false,\&amp;quot;rot\&amp;quot;:0}},\&amp;quot;mediaType\&amp;quot;:\&amp;quot;images\&amp;quot;}}}],\&amp;quot;rels\&amp;quot;:[{\&amp;quot;relationship\&amp;quot;:{\&amp;quot;Id\&amp;quot;:\&amp;quot;asset-0e62f5bd-486a-4b68-9b52-132b3ebd0fd7\&amp;quot;,\&amp;quot;Type\&amp;quot;:\&amp;quot;asset\&amp;quot;,\&amp;quot;Target\&amp;quot;:\&amp;quot;https://designerapp.officeapps.live.com/designerapp/Media.ashx/?id=23c725e6-f0c8-44c9-8964-1bd67836fe86.png&amp;amp;fileToken=bf58b787-5efb-4b8c-86f9-ae1aa244771b&amp;amp;dcHint=IndiaCentral\&amp;quot;}}]}&amp;quot;,&amp;quot;clipboardFormat&amp;quot;:&amp;quot;application/vnd.ms-designer+json&amp;quot;}&quot;&gt;&lt;/a&gt;&lt;a data-designer-clipboard=&quot;{&amp;quot;clipboardData&amp;quot;:&amp;quot;{\&amp;quot;elements\&amp;quot;:[{\&amp;quot;id\&amp;quot;:\&amp;quot;0978f192-a0c9-4299-9289-df8177acde36\&amp;quot;,\&amp;quot;type\&amp;quot;:\&amp;quot;Picture\&amp;quot;,\&amp;quot;choice\&amp;quot;:{\&amp;quot;pic\&amp;quot;:{\&amp;quot;nvPicPr\&amp;quot;:{\&amp;quot;cNvPr\&amp;quot;:{\&amp;quot;id\&amp;quot;:2,\&amp;quot;name\&amp;quot;:\&amp;quot;0978f192-a0c9-4299-9289-df8177acde36\&amp;quot;},\&amp;quot;cNvPicPr\&amp;quot;:{},\&amp;quot;nvPr\&amp;quot;:{}},\&amp;quot;blipFill\&amp;quot;:{\&amp;quot;FillMode\&amp;quot;:{\&amp;quot;stretch\&amp;quot;:{}},\&amp;quot;blip\&amp;quot;:{\&amp;quot;r_embed\&amp;quot;:\&amp;quot;asset-0e62f5bd-486a-4b68-9b52-132b3ebd0fd7\&amp;quot;},\&amp;quot;srcRect\&amp;quot;:{\&amp;quot;l\&amp;quot;:6399.970611635275,\&amp;quot;t\&amp;quot;:49036.3952036291,\&amp;quot;r\&amp;quot;:79684.14130728044,\&amp;quot;b\&amp;quot;:26280.954923438938}},\&amp;quot;spPr\&amp;quot;:{\&amp;quot;Geometry\&amp;quot;:{\&amp;quot;prstGeom\&amp;quot;:{\&amp;quot;prst\&amp;quot;:\&amp;quot;rect\&amp;quot;}},\&amp;quot;xfrm\&amp;quot;:{\&amp;quot;off\&amp;quot;:{\&amp;quot;x\&amp;quot;:7157187,\&amp;quot;y\&amp;quot;:2005661},\&amp;quot;ext\&amp;quot;:{\&amp;quot;cx\&amp;quot;:2120781,\&amp;quot;cy\&amp;quot;:2115920},\&amp;quot;flipH\&amp;quot;:false,\&amp;quot;flipV\&amp;quot;:false,\&amp;quot;rot\&amp;quot;:0}},\&amp;quot;mediaType\&amp;quot;:\&amp;quot;images\&amp;quot;}}}],\&amp;quot;rels\&amp;quot;:[{\&amp;quot;relationship\&amp;quot;:{\&amp;quot;Id\&amp;quot;:\&amp;quot;asset-0e62f5bd-486a-4b68-9b52-132b3ebd0fd7\&amp;quot;,\&amp;quot;Type\&amp;quot;:\&amp;quot;asset\&amp;quot;,\&amp;quot;Target\&amp;quot;:\&amp;quot;https://designerapp.officeapps.live.com/designerapp/Media.ashx/?id=23c725e6-f0c8-44c9-8964-1bd67836fe86.png&amp;amp;fileToken=bf58b787-5efb-4b8c-86f9-ae1aa244771b&amp;amp;dcHint=IndiaCentral\&amp;quot;}}]}&amp;quot;,&amp;quot;clipboardFormat&amp;quot;:&amp;quot;application/vnd.ms-designer+json&amp;quot;}&quot;&gt;&lt;/a&gt;&lt;/div&gt;" style="rounded=1;whiteSpace=wrap;html=1;labelBackgroundColor=none;fillColor=#B2C9AB;strokeColor=#788AA3;fontColor=#46495D;" vertex="1" parent="1">
          <mxGeometry x="555" y="210" width="175" height="170" as="geometry" />
        </mxCell>
        <mxCell id="4aXJdMdzk_CL_00D9c5z-8" value="" style="endArrow=classic;html=1;rounded=0;labelBackgroundColor=none;strokeColor=#788AA3;fontColor=default;" edge="1" parent="1">
          <mxGeometry width="50" height="50" relative="1" as="geometry">
            <mxPoint x="235" y="539.5" as="sourcePoint" />
            <mxPoint x="190" y="539.5" as="targetPoint" />
          </mxGeometry>
        </mxCell>
        <mxCell id="4aXJdMdzk_CL_00D9c5z-11" value="" style="endArrow=classic;startArrow=classic;html=1;rounded=0;labelBackgroundColor=none;strokeColor=#788AA3;fontColor=default;" edge="1" parent="1">
          <mxGeometry width="50" height="50" relative="1" as="geometry">
            <mxPoint x="505" y="310" as="sourcePoint" />
            <mxPoint x="555" y="310" as="targetPoint" />
          </mxGeometry>
        </mxCell>
      </root>
    </mxGraphModel>
  </diagram>
</mxfile>
